<svg version="1.1" xmlns="http://www.w3.org/2000/svg" viewBox="0 0 1666.9392840456383 1370.2505654670554" width="1666.9392840456383" height="1370.2505654670554">
  <!-- svg-source:excalidraw -->
  
  <defs>
    <style class="style-fonts">
      @font-face {
        font-family: "Virgil";
        src: url("https://excalidraw.com/Virgil.woff2");
      }
      @font-face {
        font-family: "Cascadia";
        src: url("https://excalidraw.com/Cascadia.woff2");
      }
      @font-face {
        font-family: "Assistant";
        src: url("https://excalidraw.com/Assistant-Regular.woff2");
      }
    </style>
    
  </defs>
  <rect x="0" y="0" width="1666.9392840456383" height="1370.2505654670554" fill="#ffffff"></rect><g stroke-linecap="round" transform="translate(652.8796395351443 489.6486185403128) rotate(0 165.60000610351562 86.25083198357413)"><path d="M32 0 C89.89 2.13, 148.18 0.72, 299.2 0 M32 0 C94.19 -0.95, 157.81 -0.6, 299.2 0 M299.2 0 C322.3 -0.63, 329.75 10.83, 331.2 32 M299.2 0 C322.29 -1.88, 332.37 10.2, 331.2 32 M331.2 32 C330.42 53.62, 331.58 75.2, 331.2 140.5 M331.2 32 C330.43 74.17, 330.73 115.81, 331.2 140.5 M331.2 140.5 C331.93 160.06, 322.21 172.5, 299.2 172.5 M331.2 140.5 C329.59 160.97, 321.68 173.53, 299.2 172.5 M299.2 172.5 C223.09 172.97, 148.54 172.17, 32 172.5 M299.2 172.5 C223.85 171.42, 147.32 171.81, 32 172.5 M32 172.5 C11.13 173, -1.6 161.51, 0 140.5 M32 172.5 C10.55 173.35, -0.19 162.69, 0 140.5 M0 140.5 C-1.47 112.87, -0.62 85.32, 0 32 M0 140.5 C1.1 99.03, 0.94 56.06, 0 32 M0 32 C-1.68 10.8, 10.91 -0.34, 32 0 M0 32 C1.39 11.58, 12.51 -0.57, 32 0" stroke="#1e1e1e" stroke-width="2" fill="none"></path></g><g transform="translate(784.0211146046863 500.36865162273574) rotate(0 32.339988708496094 17.5)"><text x="0" y="24.528" font-family="Virgil, Segoe UI Emoji" font-size="28px" fill="#1e1e1e" text-anchor="start" style="white-space: pre;" direction="ltr" dominant-baseline="alphabetic">Card</text></g><g stroke-linecap="round" transform="translate(499.59333801397884 754.3021129100416) rotate(0 163.01521870835938 110.34848694332555)"><path d="M32 0 C132.95 -1.88, 232.89 -2.9, 294.03 0 M32 0 C132.8 -1.49, 232.65 -1.01, 294.03 0 M294.03 0 C316.17 0.64, 324.76 11.68, 326.03 32 M294.03 0 C313.4 -0.91, 326.52 11.76, 326.03 32 M326.03 32 C324.3 89.24, 326.87 147.13, 326.03 188.7 M326.03 32 C326.85 89.38, 326.55 145.47, 326.03 188.7 M326.03 188.7 C325.39 210.36, 316.76 219.27, 294.03 220.7 M326.03 188.7 C325.06 211.83, 315.87 218.59, 294.03 220.7 M294.03 220.7 C205.04 220.84, 114.71 219.5, 32 220.7 M294.03 220.7 C190.18 219.48, 87.75 219.46, 32 220.7 M32 220.7 C9.07 222.22, 1.06 208.87, 0 188.7 M32 220.7 C9.59 222.57, 2.18 210.15, 0 188.7 M0 188.7 C-0.57 133.13, 1.63 77.25, 0 32 M0 188.7 C1.13 134.3, 1.27 81.05, 0 32 M0 32 C0.15 12.37, 12.2 1.48, 32 0 M0 32 C0.43 9.87, 11.37 -1.19, 32 0" stroke="#1e1e1e" stroke-width="2" fill="none"></path></g><g transform="translate(643.6791702838442 775.1270665816817) rotate(0 24.28998565673828 17.49999999999997)"><text x="0" y="24.528" font-family="Virgil, Segoe UI Emoji" font-size="28px" fill="#1e1e1e" text-anchor="start" style="white-space: pre;" direction="ltr" dominant-baseline="alphabetic">Uno</text></g><g stroke-linecap="round" transform="translate(959.2220446124396 748.6194935938446) rotate(0 163.01521870835938 109.36707134934727)"><path d="M32 0 C94.86 -1.08, 159.63 0.24, 294.03 0 M32 0 C84.9 -2.19, 137.26 -1.73, 294.03 0 M294.03 0 C315.21 -0.71, 325.99 9.99, 326.03 32 M294.03 0 C315.84 0.62, 324.5 10.03, 326.03 32 M326.03 32 C325.89 70.29, 325.95 106.8, 326.03 186.73 M326.03 32 C325.1 81.05, 325 130.57, 326.03 186.73 M326.03 186.73 C327.49 208.34, 316.65 219.77, 294.03 218.73 M326.03 186.73 C327.89 206.56, 314.31 219.92, 294.03 218.73 M294.03 218.73 C220.37 219.18, 145.84 219.11, 32 218.73 M294.03 218.73 C230.02 220.76, 164.81 220.03, 32 218.73 M32 218.73 C12.19 220.16, 0.01 207.3, 0 186.73 M32 218.73 C11.79 220.99, -1.85 209.85, 0 186.73 M0 186.73 C-1.25 140.87, -1.83 93.49, 0 32 M0 186.73 C0.69 129.1, 0.12 71, 0 32 M0 32 C0.77 9.99, 9.72 0.99, 32 0 M0 32 C1.9 9.43, 10.76 -0.03, 32 0" stroke="#1e1e1e" stroke-width="2" fill="none"></path></g><g transform="translate(1094.4920270225625 763.944536920775) rotate(0 34.24397277832031 17.5)"><text x="0" y="24.528" font-family="Virgil, Segoe UI Emoji" font-size="28px" fill="#1e1e1e" text-anchor="start" style="white-space: pre;" direction="ltr" dominant-baseline="alphabetic">Skyjo</text></g><g stroke-linecap="round"><g transform="translate(762.3669104656051 669.7624733923865) rotate(0 -46.93804466964396 39.58294264462555)"><path d="M-0.11 -0.53 C-15.6 12.51, -77.14 65.88, -92.71 79.35 M-1.63 1.81 C-17.19 15.58, -77.63 68.19, -93.05 80.98" stroke="#1e1e1e" stroke-width="2" fill="none"></path></g><g transform="translate(762.3669104656051 669.7624733923865) rotate(0 -46.93804466964396 39.58294264462555)"><path d="M-80.73 59.23 C-85.31 68.05, -88.03 73.5, -93.05 80.98 M-80.73 59.23 C-84.68 66.95, -91.16 77.01, -93.05 80.98" stroke="#1e1e1e" stroke-width="2" fill="none"></path></g><g transform="translate(762.3669104656051 669.7624733923865) rotate(0 -46.93804466964396 39.58294264462555)"><path d="M-69.63 72.24 C-77.85 76.93, -84.08 78.26, -93.05 80.98 M-69.63 72.24 C-78.05 74.87, -88.92 79.77, -93.05 80.98" stroke="#1e1e1e" stroke-width="2" fill="none"></path></g></g><mask></mask><g stroke-linecap="round"><g transform="translate(873.2297404542618 669.10831717376) rotate(0 88.08451698623446 36.710907538387175)"><path d="M0.67 -0.06 C30.17 12.12, 147.88 61.56, 176.94 73.69 M-0.43 -1.14 C28.98 10.6, 146.76 59.24, 176.39 71.7" stroke="#1e1e1e" stroke-width="2" fill="none"></path></g><g transform="translate(873.2297404542618 669.10831717376) rotate(0 88.08451698623446 36.710907538387175)"><path d="M151.42 70.58 C158.68 72.05, 166.59 69.21, 176.39 71.7 M151.42 70.58 C158.21 70.55, 163.27 72.1, 176.39 71.7" stroke="#1e1e1e" stroke-width="2" fill="none"></path></g><g transform="translate(873.2297404542618 669.10831717376) rotate(0 88.08451698623446 36.710907538387175)"><path d="M157.98 54.79 C163.39 60.95, 169.36 62.77, 176.39 71.7 M157.98 54.79 C163.12 58.53, 166.61 63.85, 176.39 71.7" stroke="#1e1e1e" stroke-width="2" fill="none"></path></g></g><mask></mask><g transform="translate(792.8275026463652 569.0955807661467) rotate(0 23.02997589111328 12.5)"><text x="0" y="17.52" font-family="Virgil, Segoe UI Emoji" font-size="20px" fill="#1e1e1e" text-anchor="start" style="white-space: pre;" direction="ltr" dominant-baseline="alphabetic">color</text></g><g transform="translate(794.7628156733849 599.0185913648309) rotate(0 25.679977416992188 12.5)"><text x="0" y="17.52" font-family="Virgil, Segoe UI Emoji" font-size="20px" fill="#1e1e1e" text-anchor="start" style="white-space: pre;" direction="ltr" dominant-baseline="alphabetic">value</text></g><g stroke-linecap="round" transform="translate(678.9099709795715 160.12342240157503) rotate(0 165.60000610351562 123.54234097406209)"><path d="M32 0 C116.42 -0.69, 199.49 -0.61, 299.2 0 M32 0 C86.57 -0.99, 142.35 -1.63, 299.2 0 M299.2 0 C320.78 1.39, 329.6 9.31, 331.2 32 M299.2 0 C321.31 -0.95, 331.3 12.37, 331.2 32 M331.2 32 C332.74 104.05, 332.55 170.82, 331.2 215.08 M331.2 32 C331.38 100.87, 333.05 169.25, 331.2 215.08 M331.2 215.08 C332.37 238.04, 322.27 245.39, 299.2 247.08 M331.2 215.08 C332.87 235.49, 322.57 248.69, 299.2 247.08 M299.2 247.08 C236.17 246.39, 175.92 248.05, 32 247.08 M299.2 247.08 C243.31 246.57, 187.54 246.74, 32 247.08 M32 247.08 C12.62 245.66, -0.17 237.56, 0 215.08 M32 247.08 C11.39 245.31, -1.12 234.62, 0 215.08 M0 215.08 C-0.41 154.61, -0.62 93.4, 0 32 M0 215.08 C-1.3 165.06, -0.54 116.45, 0 32 M0 32 C0.52 9.89, 11.95 0.24, 32 0 M0 32 C0.45 10.95, 11.33 0.15, 32 0" stroke="#1e1e1e" stroke-width="2" fill="none"></path></g><g transform="translate(767.1308536971308 165.27155826425482) rotate(0 59.30397033691406 17.5)"><text x="0" y="24.528" font-family="Virgil, Segoe UI Emoji" font-size="28px" fill="#1e1e1e" text-anchor="start" style="white-space: pre;" direction="ltr" dominant-baseline="alphabetic">ListCard</text></g><g stroke-linecap="round"><g transform="translate(829.2327549139663 411.9849494549683) rotate(0 -1.9593770009237232 33.29088454002806)"><path d="M-0.62 0.25 C-1.52 11.14, -4 55.53, -4.7 66.45 M1.26 -0.67 C0.68 10.93, -1.79 56.7, -2.39 67.92" stroke="#1e1e1e" stroke-width="2" fill="none"></path></g><g transform="translate(829.2327549139663 411.9849494549683) rotate(0 -1.9593770009237232 33.29088454002806)"><path d="M-9.67 44 C-6.42 51.33, -4.45 59.76, -2.39 67.92 M-9.67 44 C-8.5 49.85, -6.54 54.65, -2.39 67.92" stroke="#1e1e1e" stroke-width="2" fill="none"></path></g><g transform="translate(829.2327549139663 411.9849494549683) rotate(0 -1.9593770009237232 33.29088454002806)"><path d="M7.41 44.92 C4.52 51.83, 0.37 59.93, -2.39 67.92 M7.41 44.92 C4.6 50.69, 2.57 55.28, -2.39 67.92" stroke="#1e1e1e" stroke-width="2" fill="none"></path></g></g><mask></mask><g stroke-linecap="round" transform="translate(1192.2681331111567 152.4018868297963) rotate(0 165.60000610351562 86.62629000326389)"><path d="M32 0 C106.5 -1.15, 178.65 -0.66, 299.2 0 M32 0 C134.89 0.66, 236.75 0.61, 299.2 0 M299.2 0 C321.99 0.86, 330.53 9.34, 331.2 32 M299.2 0 C322.77 -1, 328.93 9.39, 331.2 32 M331.2 32 C330.49 54.19, 331.1 78.25, 331.2 141.25 M331.2 32 C329.97 67.96, 330.94 103.38, 331.2 141.25 M331.2 141.25 C332.66 162.03, 319.4 171.26, 299.2 173.25 M331.2 141.25 C329.34 163.87, 319.46 174.51, 299.2 173.25 M299.2 173.25 C242.43 171.38, 184.43 170.86, 32 173.25 M299.2 173.25 C214.42 175.25, 129.37 173.98, 32 173.25 M32 173.25 C11.45 175.06, -1.33 161.24, 0 141.25 M32 173.25 C10.71 174.68, 1.33 162.31, 0 141.25 M0 141.25 C2.04 112.08, -0.28 85.39, 0 32 M0 141.25 C0.3 115.21, 0 89.88, 0 32 M0 32 C-0.22 10.21, 10.83 -1.13, 32 0 M0 32 C-1.83 8.97, 11.52 -1.47, 32 0" stroke="#1e1e1e" stroke-width="2" fill="none"></path></g><g transform="translate(1299.2250397447342 168.8576809431973) rotate(0 64.72196960449219 35)"><text x="64.72196960449219" y="24.528" font-family="Virgil, Segoe UI Emoji" font-size="28px" fill="#1e1e1e" text-anchor="middle" style="white-space: pre;" direction="ltr" dominant-baseline="alphabetic">CardType</text><text x="64.72196960449219" y="59.528" font-family="Virgil, Segoe UI Emoji" font-size="28px" fill="#1e1e1e" text-anchor="middle" style="white-space: pre;" direction="ltr" dominant-baseline="alphabetic">Enum</text></g><g transform="translate(1355.218940788085 247.93526984760643) rotate(0 17.349990844726562 12.5)"><text x="0" y="17.52" font-family="Virgil, Segoe UI Emoji" font-size="20px" fill="#1e1e1e" text-anchor="start" style="white-space: pre;" direction="ltr" dominant-baseline="alphabetic">Uno</text></g><g transform="translate(1348.0070058787242 283.5824367518878) rotate(0 24.459976196289062 12.5)"><text x="0" y="17.52" font-family="Virgil, Segoe UI Emoji" font-size="20px" fill="#1e1e1e" text-anchor="start" style="white-space: pre;" direction="ltr" dominant-baseline="alphabetic">Skyjo</text></g><g stroke-linecap="round"><g transform="translate(1194.9473878066515 232.9837805811993) rotate(0 -89.14381467736337 -10.656793280932554)"><path d="M0.67 -0.92 C-29.09 -4.39, -149.15 -16.92, -178.83 -20.22 M-0.43 1.21 C-30.38 -2.62, -150.52 -17.78, -180.07 -21.77" stroke="#1e1e1e" stroke-width="2" fill="none"></path></g><g transform="translate(1194.9473878066515 232.9837805811993) rotate(0 -89.14381467736337 -10.656793280932554)"><path d="M-155.67 -27.22 C-164.03 -26.46, -167.54 -22.53, -180.07 -21.77 M-155.67 -27.22 C-163.9 -26.05, -171.89 -24.2, -180.07 -21.77" stroke="#1e1e1e" stroke-width="2" fill="none"></path></g><g transform="translate(1194.9473878066515 232.9837805811993) rotate(0 -89.14381467736337 -10.656793280932554)"><path d="M-157.87 -10.27 C-165.7 -14.28, -168.59 -15.12, -180.07 -21.77 M-157.87 -10.27 C-165.21 -15.04, -172.44 -19.13, -180.07 -21.77" stroke="#1e1e1e" stroke-width="2" fill="none"></path></g></g><mask></mask><g stroke-linecap="round" transform="translate(76.7427492004822 869.8935296548607) rotate(0 165.60000610351562 243.26353971805844)"><path d="M32 0 C92.12 -0.54, 155.69 -0.53, 299.2 0 M32 0 C94.55 1.5, 158.39 1.64, 299.2 0 M299.2 0 C319.6 1.71, 329.9 12.44, 331.2 32 M299.2 0 C318.97 -1.98, 331.73 11.33, 331.2 32 M331.2 32 C329.78 122.21, 331.24 211.76, 331.2 454.53 M331.2 32 C328.71 179.63, 329.51 326.97, 331.2 454.53 M331.2 454.53 C329.52 477.21, 319.34 487.25, 299.2 486.53 M331.2 454.53 C332.21 476.32, 321.25 484.9, 299.2 486.53 M299.2 486.53 C193.84 483.66, 85.48 485.2, 32 486.53 M299.2 486.53 C206.31 486.79, 112.78 486.49, 32 486.53 M32 486.53 C8.9 488.44, 0.69 477.55, 0 454.53 M32 486.53 C11.27 486.8, 0.12 476.89, 0 454.53 M0 454.53 C1.85 310.68, 2.23 164.91, 0 32 M0 454.53 C-1.81 301.49, -1.24 148.7, 0 32 M0 32 C-0.15 11.25, 9.91 0.38, 32 0 M0 32 C-0.5 9.3, 12.04 0.62, 32 0" stroke="#1e1e1e" stroke-width="2" fill="none"></path></g><g transform="translate(188.26365119538798 886.3493237682617) rotate(0 60.15797424316406 35)"><text x="60.15797424316406" y="24.528" font-family="Virgil, Segoe UI Emoji" font-size="28px" fill="#1e1e1e" text-anchor="middle" style="white-space: pre;" direction="ltr" dominant-baseline="alphabetic">UnoValue</text><text x="60.15797424316406" y="59.528" font-family="Virgil, Segoe UI Emoji" font-size="28px" fill="#1e1e1e" text-anchor="middle" style="white-space: pre;" direction="ltr" dominant-baseline="alphabetic">Enum</text></g><g transform="translate(217.99180583173336 972.9793146266933) rotate(0 23.27997589111328 12.5)"><text x="0" y="17.52" font-family="Virgil, Segoe UI Emoji" font-size="20px" fill="#1e1e1e" text-anchor="start" style="white-space: pre;" direction="ltr" dominant-baseline="alphabetic">Zero</text></g><g stroke-linecap="round"><g transform="translate(409.04370339119316 879.6234707914412) rotate(0 44.279000028558755 -9.354821954215709)"><path d="M-1.03 0.27 C13.61 -2.88, 74.01 -16.64, 88.91 -19.74 M0.62 -0.63 C15.04 -3.6, 73.67 -16.04, 88.14 -18.75" stroke="#1e1e1e" stroke-width="2" fill="none"></path></g><g transform="translate(409.04370339119316 879.6234707914412) rotate(0 44.279000028558755 -9.354821954215709)"><path d="M66.8 -5.73 C75.64 -10.03, 81.76 -16.05, 88.14 -18.75 M66.8 -5.73 C74.35 -10.79, 81.38 -15.16, 88.14 -18.75" stroke="#1e1e1e" stroke-width="2" fill="none"></path></g><g transform="translate(409.04370339119316 879.6234707914412) rotate(0 44.279000028558755 -9.354821954215709)"><path d="M63.42 -22.49 C73.47 -20.24, 80.9 -19.75, 88.14 -18.75 M63.42 -22.49 C71.92 -22.06, 80.06 -20.94, 88.14 -18.75" stroke="#1e1e1e" stroke-width="2" fill="none"></path></g></g><mask></mask><g transform="translate(225.68579065563335 996.8858292068932) rotate(0 17.399986267089844 12.5)"><text x="0" y="17.52" font-family="Virgil, Segoe UI Emoji" font-size="20px" fill="#1e1e1e" text-anchor="start" style="white-space: pre;" direction="ltr" dominant-baseline="alphabetic">One</text></g><g transform="translate(217.28134190080118 1019.497892353762) rotate(0 19.66998291015625 12.5)"><text x="0" y="17.52" font-family="Virgil, Segoe UI Emoji" font-size="20px" fill="#1e1e1e" text-anchor="start" style="white-space: pre;" direction="ltr" dominant-baseline="alphabetic">Two</text></g><g transform="translate(210.89340929037303 1041.115887477325) rotate(0 28.219970703125 12.5)"><text x="0" y="17.52" font-family="Virgil, Segoe UI Emoji" font-size="20px" fill="#1e1e1e" text-anchor="start" style="white-space: pre;" direction="ltr" dominant-baseline="alphabetic">Three</text></g><g transform="translate(223.9332168779638 1062.7056828578848) rotate(0 21.259979248046875 12.5)"><text x="0" y="17.52" font-family="Virgil, Segoe UI Emoji" font-size="20px" fill="#1e1e1e" text-anchor="start" style="white-space: pre;" direction="ltr" dominant-baseline="alphabetic">Four</text></g><g transform="translate(217.64484652931446 1086.7490172233897) rotate(0 18.629981994628906 12.5)"><text x="0" y="17.52" font-family="Virgil, Segoe UI Emoji" font-size="20px" fill="#1e1e1e" text-anchor="start" style="white-space: pre;" direction="ltr" dominant-baseline="alphabetic">Five</text></g><g transform="translate(222.72823302468237 1111.7736174398774) rotate(0 13.889984130859375 12.5)"><text x="0" y="17.52" font-family="Virgil, Segoe UI Emoji" font-size="20px" fill="#1e1e1e" text-anchor="start" style="white-space: pre;" direction="ltr" dominant-baseline="alphabetic">Six</text></g><g transform="translate(207.84111695285287 1134.3446037999215) rotate(0 26.91997528076172 12.5)"><text x="0" y="17.52" font-family="Virgil, Segoe UI Emoji" font-size="20px" fill="#1e1e1e" text-anchor="start" style="white-space: pre;" direction="ltr" dominant-baseline="alphabetic">Seven</text></g><g transform="translate(215.69206734718955 1161.8225932583591) rotate(0 24.52997589111328 12.5)"><text x="0" y="17.52" font-family="Virgil, Segoe UI Emoji" font-size="20px" fill="#1e1e1e" text-anchor="start" style="white-space: pre;" direction="ltr" dominant-baseline="alphabetic">Eight</text></g><g transform="translate(212.41216844128712 1188.3191671228183) rotate(0 18.769981384277344 12.5)"><text x="0" y="17.52" font-family="Virgil, Segoe UI Emoji" font-size="20px" fill="#1e1e1e" text-anchor="start" style="white-space: pre;" direction="ltr" dominant-baseline="alphabetic">Nine</text></g><g transform="translate(193.63827052862484 1210.8903780973565) rotate(0 40.01995849609375 12.5)"><text x="0" y="17.52" font-family="Virgil, Segoe UI Emoji" font-size="20px" fill="#1e1e1e" text-anchor="start" style="white-space: pre;" direction="ltr" dominant-baseline="alphabetic">PlusTwo</text></g><g transform="translate(192.75621834704566 1235.4244202598506) rotate(0 41.609954833984375 12.5)"><text x="0" y="17.52" font-family="Virgil, Segoe UI Emoji" font-size="20px" fill="#1e1e1e" text-anchor="start" style="white-space: pre;" direction="ltr" dominant-baseline="alphabetic">PlusFour</text></g><g transform="translate(191.52127463041916 1262.4115521783033) rotate(0 38.14996337890625 12.5)"><text x="0" y="17.52" font-family="Virgil, Segoe UI Emoji" font-size="20px" fill="#1e1e1e" text-anchor="start" style="white-space: pre;" direction="ltr" dominant-baseline="alphabetic">Reverse</text></g><g stroke-linecap="round" transform="translate(1325.739271838607 883.5370429987379) rotate(0 165.60000610351562 238.3567612341588)"><path d="M32 0 C127.44 -0.88, 224.21 -0.19, 299.2 0 M32 0 C97.87 1.73, 163.01 1.65, 299.2 0 M299.2 0 C321.7 0.95, 331.47 11.23, 331.2 32 M299.2 0 C320.61 2.08, 332.46 11.61, 331.2 32 M331.2 32 C329.96 175.56, 329.38 318.85, 331.2 444.71 M331.2 32 C331.72 186.09, 331.53 339.96, 331.2 444.71 M331.2 444.71 C331.94 466.74, 320 475.09, 299.2 476.71 M331.2 444.71 C331.77 466.58, 320.98 474.95, 299.2 476.71 M299.2 476.71 C218.16 473.62, 137.56 474.95, 32 476.71 M299.2 476.71 C196.55 477.79, 93.38 478.63, 32 476.71 M32 476.71 C11.67 477.56, -1.41 465.37, 0 444.71 M32 476.71 C9.62 475.68, -1.33 465.24, 0 444.71 M0 444.71 C-1.58 285.16, -1.16 123.84, 0 32 M0 444.71 C1.7 348.39, 1.83 252.1, 0 32 M0 32 C1.71 11.8, 11.39 0.17, 32 0 M0 32 C-0.55 8.69, 12.93 -1.8, 32 0" stroke="#1e1e1e" stroke-width="2" fill="none"></path></g><g transform="translate(1427.3061867119309 899.9928371121391) rotate(0 70.11196136474604 35)"><text x="70.1119613647461" y="24.528" font-family="Virgil, Segoe UI Emoji" font-size="28px" fill="#1e1e1e" text-anchor="middle" style="white-space: pre;" direction="ltr" dominant-baseline="alphabetic">SkyjoValue</text><text x="70.1119613647461" y="59.528" font-family="Virgil, Segoe UI Emoji" font-size="28px" fill="#1e1e1e" text-anchor="middle" style="white-space: pre;" direction="ltr" dominant-baseline="alphabetic">Enum</text></g><g transform="translate(1466.988328469858 1020.6228279705706) rotate(0 23.27997589111328 12.5)"><text x="0" y="17.52" font-family="Virgil, Segoe UI Emoji" font-size="20px" fill="#1e1e1e" text-anchor="start" style="white-space: pre;" direction="ltr" dominant-baseline="alphabetic">Zero</text></g><g transform="translate(1474.6823132937582 1044.5293425507705) rotate(0 17.399986267089844 12.5)"><text x="0" y="17.52" font-family="Virgil, Segoe UI Emoji" font-size="20px" fill="#1e1e1e" text-anchor="start" style="white-space: pre;" direction="ltr" dominant-baseline="alphabetic">One</text></g><g transform="translate(1466.277864538926 1067.1414056976394) rotate(0 19.66998291015625 12.5)"><text x="0" y="17.52" font-family="Virgil, Segoe UI Emoji" font-size="20px" fill="#1e1e1e" text-anchor="start" style="white-space: pre;" direction="ltr" dominant-baseline="alphabetic">Two</text></g><g transform="translate(1459.8899319284978 1088.7594008212022) rotate(0 28.219970703125 12.5)"><text x="0" y="17.52" font-family="Virgil, Segoe UI Emoji" font-size="20px" fill="#1e1e1e" text-anchor="start" style="white-space: pre;" direction="ltr" dominant-baseline="alphabetic">Three</text></g><g transform="translate(1472.9297395160886 1110.349196201762) rotate(0 21.259979248046875 12.5)"><text x="0" y="17.52" font-family="Virgil, Segoe UI Emoji" font-size="20px" fill="#1e1e1e" text-anchor="start" style="white-space: pre;" direction="ltr" dominant-baseline="alphabetic">Four</text></g><g transform="translate(1466.6413691674393 1134.392530567267) rotate(0 18.629981994628906 12.5)"><text x="0" y="17.52" font-family="Virgil, Segoe UI Emoji" font-size="20px" fill="#1e1e1e" text-anchor="start" style="white-space: pre;" direction="ltr" dominant-baseline="alphabetic">Five</text></g><g transform="translate(1471.7247556628072 1159.4171307837548) rotate(0 13.889984130859375 12.5)"><text x="0" y="17.52" font-family="Virgil, Segoe UI Emoji" font-size="20px" fill="#1e1e1e" text-anchor="start" style="white-space: pre;" direction="ltr" dominant-baseline="alphabetic">Six</text></g><g transform="translate(1456.8376395909777 1181.988117143799) rotate(0 26.91997528076172 12.5)"><text x="0" y="17.52" font-family="Virgil, Segoe UI Emoji" font-size="20px" fill="#1e1e1e" text-anchor="start" style="white-space: pre;" direction="ltr" dominant-baseline="alphabetic">Seven</text></g><g transform="translate(1464.6885899853144 1209.4661066022366) rotate(0 24.52997589111328 12.5)"><text x="0" y="17.52" font-family="Virgil, Segoe UI Emoji" font-size="20px" fill="#1e1e1e" text-anchor="start" style="white-space: pre;" direction="ltr" dominant-baseline="alphabetic">Eight</text></g><g transform="translate(1461.408691079412 1235.9626804666955) rotate(0 18.769981384277344 12.5)"><text x="0" y="17.52" font-family="Virgil, Segoe UI Emoji" font-size="20px" fill="#1e1e1e" text-anchor="start" style="white-space: pre;" direction="ltr" dominant-baseline="alphabetic">Nine</text></g><g transform="translate(1462.2619071023485 1258.5338914412337) rotate(0 18.17998504638672 12.5)"><text x="0" y="17.52" font-family="Virgil, Segoe UI Emoji" font-size="20px" fill="#1e1e1e" text-anchor="start" style="white-space: pre;" direction="ltr" dominant-baseline="alphabetic">Ten</text></g><g transform="translate(1451.56629795297 1285.0306150486886) rotate(0 30.209976196289062 12.5)"><text x="0" y="17.52" font-family="Virgil, Segoe UI Emoji" font-size="20px" fill="#1e1e1e" text-anchor="start" style="white-space: pre;" direction="ltr" dominant-baseline="alphabetic">Eleven</text></g><g transform="translate(1450.3313542363435 1312.0177469671416) rotate(0 32.929969787597656 12.5)"><text x="0" y="17.52" font-family="Virgil, Segoe UI Emoji" font-size="20px" fill="#1e1e1e" text-anchor="start" style="white-space: pre;" direction="ltr" dominant-baseline="alphabetic">Twelve</text></g><g transform="translate(1452.5180642574367 997.3126392358399) rotate(0 43.02996063232422 12.5)"><text x="0" y="17.52" font-family="Virgil, Segoe UI Emoji" font-size="20px" fill="#1e1e1e" text-anchor="start" style="white-space: pre;" direction="ltr" dominant-baseline="alphabetic">MinusOne</text></g><g transform="translate(1453.2687991925527 975.1202552646716) rotate(0 45.299957275390625 12.5)"><text x="0" y="17.52" font-family="Virgil, Segoe UI Emoji" font-size="20px" fill="#1e1e1e" text-anchor="start" style="white-space: pre;" direction="ltr" dominant-baseline="alphabetic">MinusTwo</text></g><g stroke-linecap="round"><g transform="translate(1425.192258924394 886.0402312461783) rotate(0 -64.93682667184675 -28.768933666203054)"><path d="M0.34 -1.11 C-21.34 -10.99, -108.75 -48.94, -130.4 -58.54 M-0.95 0.92 C-22.8 -8.91, -110.08 -47.71, -131.63 -57.52" stroke="#1e1e1e" stroke-width="2" fill="none"></path></g><g transform="translate(1425.192258924394 886.0402312461783) rotate(0 -64.93682667184675 -28.768933666203054)"><path d="M-106.7 -55.7 C-115.32 -57, -121.88 -56.17, -131.63 -57.52 M-106.7 -55.7 C-110.85 -56.38, -117.35 -55.63, -131.63 -57.52" stroke="#1e1e1e" stroke-width="2" fill="none"></path></g><g transform="translate(1425.192258924394 886.0402312461783) rotate(0 -64.93682667184675 -28.768933666203054)"><path d="M-113.7 -40.1 C-120.52 -45.65, -125.18 -49.04, -131.63 -57.52 M-113.7 -40.1 C-116.5 -44.01, -121.56 -46.46, -131.63 -57.52" stroke="#1e1e1e" stroke-width="2" fill="none"></path></g></g><mask></mask><g transform="translate(207.73620312093544 1287.759001565601) rotate(0 24.139976501464844 12.5)"><text x="0" y="17.52" font-family="Virgil, Segoe UI Emoji" font-size="20px" fill="#1e1e1e" text-anchor="start" style="white-space: pre;" direction="ltr" dominant-baseline="alphabetic">Pass</text></g><g transform="translate(180.0385728852293 1308.3673813521827) rotate(0 57.64994812011719 12.5)"><text x="0" y="17.52" font-family="Virgil, Segoe UI Emoji" font-size="20px" fill="#1e1e1e" text-anchor="start" style="white-space: pre;" direction="ltr" dominant-baseline="alphabetic">ChnageColor</text></g><g stroke-linecap="round" transform="translate(456.14542221164265 1093.3057424227973) rotate(0 165.60000610351562 126.48219682694577)"><path d="M32 0 C98 -1.1, 161.41 -0.51, 299.2 0 M32 0 C129.88 0.56, 228.48 0.67, 299.2 0 M299.2 0 C321.91 -1.3, 330.1 11.18, 331.2 32 M299.2 0 C320.17 1.95, 329.27 12.94, 331.2 32 M331.2 32 C331.14 99.07, 329.37 169.71, 331.2 220.96 M331.2 32 C330.07 93.2, 330.74 154.46, 331.2 220.96 M331.2 220.96 C332.39 241.15, 321.12 254.38, 299.2 252.96 M331.2 220.96 C329.5 240.39, 320.39 251.17, 299.2 252.96 M299.2 252.96 C212.27 255.58, 124.85 254.96, 32 252.96 M299.2 252.96 C200.24 252.61, 101.54 251.67, 32 252.96 M32 252.96 C8.69 253.52, 0.74 243.3, 0 220.96 M32 252.96 C11.88 253.16, 2.12 242.54, 0 220.96 M0 220.96 C1.76 162.45, 2.81 102.9, 0 32 M0 220.96 C1.08 153.21, 1.18 84.69, 0 32 M0 32 C1.35 11.35, 11.11 0.94, 32 0 M0 32 C1.36 11.1, 10.93 -1.43, 32 0" stroke="#1e1e1e" stroke-width="2" fill="none"></path></g><g transform="translate(569.3043246948297 1109.761536536198) rotate(0 58.51997375488281 35)"><text x="58.51997375488281" y="24.528" font-family="Virgil, Segoe UI Emoji" font-size="28px" fill="#1e1e1e" text-anchor="middle" style="white-space: pre;" direction="ltr" dominant-baseline="alphabetic">UnoColor</text><text x="58.51997375488281" y="59.528" font-family="Virgil, Segoe UI Emoji" font-size="28px" fill="#1e1e1e" text-anchor="middle" style="white-space: pre;" direction="ltr" dominant-baseline="alphabetic">Enum</text></g><g transform="translate(609.1707172556538 1190.5033333167517) rotate(0 17.939987182617188 12.5)"><text x="0" y="17.52" font-family="Virgil, Segoe UI Emoji" font-size="20px" fill="#1e1e1e" text-anchor="start" style="white-space: pre;" direction="ltr" dominant-baseline="alphabetic">Red</text></g><g transform="translate(605.0884636667938 1220.2980419748296) rotate(0 21.04998016357422 12.5)"><text x="0" y="17.52" font-family="Virgil, Segoe UI Emoji" font-size="20px" fill="#1e1e1e" text-anchor="start" style="white-space: pre;" direction="ltr" dominant-baseline="alphabetic">Blue</text></g><g transform="translate(596.6840149119616 1242.9101051216985) rotate(0 27.79998016357422 12.5)"><text x="0" y="17.52" font-family="Virgil, Segoe UI Emoji" font-size="20px" fill="#1e1e1e" text-anchor="start" style="white-space: pre;" direction="ltr" dominant-baseline="alphabetic">Green</text></g><g transform="translate(604.0350021592544 1270.416294323139) rotate(0 17.939987182617188 12.5)"><text x="0" y="17.52" font-family="Virgil, Segoe UI Emoji" font-size="20px" fill="#1e1e1e" text-anchor="start" style="white-space: pre;" direction="ltr" dominant-baseline="alphabetic">Red</text></g><g transform="translate(595.4850143662854 1293.9687711486595) rotate(0 26.459983825683594 12.5)"><text x="0" y="17.52" font-family="Virgil, Segoe UI Emoji" font-size="20px" fill="#1e1e1e" text-anchor="start" style="white-space: pre;" direction="ltr" dominant-baseline="alphabetic">Black</text></g><g stroke-linecap="round"><g transform="translate(629.9686125652934 1096.941745479429) rotate(0 7.677255715950849 -53.908387540191825)"><path d="M-1.06 -0.57 C1.87 -18.61, 13.9 -90.57, 16.47 -108.43 M0.58 1.75 C3.54 -16.13, 13.42 -89.2, 16.11 -107.22" stroke="#1e1e1e" stroke-width="2" fill="none"></path></g><g transform="translate(629.9686125652934 1096.941745479429) rotate(0 7.677255715950849 -53.908387540191825)"><path d="M21.28 -82.76 C19.3 -86.03, 18.14 -94.67, 16.11 -107.22 M21.28 -82.76 C20.4 -89.78, 17.24 -97.36, 16.11 -107.22" stroke="#1e1e1e" stroke-width="2" fill="none"></path></g><g transform="translate(629.9686125652934 1096.941745479429) rotate(0 7.677255715950849 -53.908387540191825)"><path d="M4.35 -85.16 C5.89 -87.78, 8.25 -95.92, 16.11 -107.22 M4.35 -85.16 C8.68 -91.34, 10.72 -98.19, 16.11 -107.22" stroke="#1e1e1e" stroke-width="2" fill="none"></path></g></g><mask></mask><g stroke-linecap="round" transform="translate(954.6741461244526 1092.81495975431) rotate(0 165.60000610351562 126.48219682694577)"><path d="M32 0 C90.07 -1.8, 148.65 -0.91, 299.2 0 M32 0 C115.33 -1.23, 197.43 -1.2, 299.2 0 M299.2 0 C319.54 0.59, 332.42 9.45, 331.2 32 M299.2 0 C320.95 2.26, 332.59 12.5, 331.2 32 M331.2 32 C332.97 94.88, 333.64 155.94, 331.2 220.96 M331.2 32 C332.59 90.73, 332.2 149.83, 331.2 220.96 M331.2 220.96 C329.88 241.22, 318.8 251.03, 299.2 252.96 M331.2 220.96 C333.23 241.26, 318.63 252.7, 299.2 252.96 M299.2 252.96 C193.09 254.25, 88.07 255.96, 32 252.96 M299.2 252.96 C197.86 252.24, 95.68 252.64, 32 252.96 M32 252.96 C10.81 254.43, 1.23 243.17, 0 220.96 M32 252.96 C8.79 251.65, 1.48 241.35, 0 220.96 M0 220.96 C-0.74 151, 1.04 82.33, 0 32 M0 220.96 C2 157.61, 1.26 92.29, 0 32 M0 32 C-0.39 8.99, 11.04 0.93, 32 0 M0 32 C1.35 10.43, 11.37 0.5, 32 0" stroke="#1e1e1e" stroke-width="2" fill="none"></path></g><g transform="translate(1057.8790614860577 1109.2707538677107) rotate(0 68.47396087646484 35)"><text x="68.47396087646484" y="24.528" font-family="Virgil, Segoe UI Emoji" font-size="28px" fill="#1e1e1e" text-anchor="middle" style="white-space: pre;" direction="ltr" dominant-baseline="alphabetic">SkyjoColor</text><text x="68.47396087646484" y="59.528" font-family="Virgil, Segoe UI Emoji" font-size="28px" fill="#1e1e1e" text-anchor="middle" style="white-space: pre;" direction="ltr" dominant-baseline="alphabetic">Enum</text></g><g transform="translate(1084.1468145999474 1190.0125506482646) rotate(0 29.619964599609375 12.5)"><text x="0" y="17.52" font-family="Virgil, Segoe UI Emoji" font-size="20px" fill="#1e1e1e" text-anchor="start" style="white-space: pre;" direction="ltr" dominant-baseline="alphabetic">Purple</text></g><g transform="translate(1093.8036306118045 1219.8072593063425) rotate(0 21.04998016357422 12.5)"><text x="0" y="17.52" font-family="Virgil, Segoe UI Emoji" font-size="20px" fill="#1e1e1e" text-anchor="start" style="white-space: pre;" direction="ltr" dominant-baseline="alphabetic">Blue</text></g><g transform="translate(1085.399181856972 1242.4193224532114) rotate(0 27.79998016357422 12.5)"><text x="0" y="17.52" font-family="Virgil, Segoe UI Emoji" font-size="20px" fill="#1e1e1e" text-anchor="start" style="white-space: pre;" direction="ltr" dominant-baseline="alphabetic">Green</text></g><g transform="translate(1090.7874876593041 1267.9628302096912) rotate(0 27.519973754882812 12.5)"><text x="0" y="17.52" font-family="Virgil, Segoe UI Emoji" font-size="20px" fill="#1e1e1e" text-anchor="start" style="white-space: pre;" direction="ltr" dominant-baseline="alphabetic">Yellow</text></g><g transform="translate(1099.9017826139775 1295.4408196681284) rotate(0 17.939987182617188 12.5)"><text x="0" y="17.52" font-family="Virgil, Segoe UI Emoji" font-size="20px" fill="#1e1e1e" text-anchor="start" style="white-space: pre;" direction="ltr" dominant-baseline="alphabetic">Red</text></g><g stroke-linecap="round"><g transform="translate(1092.7313683455764 1079.3108401580894) rotate(0 -10.15448191837038 -49.9830620860194)"><path d="M0.14 0.8 C-3.29 -15.76, -16.37 -82.02, -19.62 -98.82 M-1.24 0.17 C-4.85 -16.73, -17.14 -83.86, -20.21 -100.34" stroke="#1e1e1e" stroke-width="2" fill="none"></path></g><g transform="translate(1092.7313683455764 1079.3108401580894) rotate(0 -10.15448191837038 -49.9830620860194)"><path d="M-7.53 -78.8 C-11.1 -85.81, -15.33 -93.56, -20.21 -100.34 M-7.53 -78.8 C-11.89 -85.04, -14.24 -90.9, -20.21 -100.34" stroke="#1e1e1e" stroke-width="2" fill="none"></path></g><g transform="translate(1092.7313683455764 1079.3108401580894) rotate(0 -10.15448191837038 -49.9830620860194)"><path d="M-24.35 -75.69 C-21.55 -83.9, -19.4 -92.83, -20.21 -100.34 M-24.35 -75.69 C-23.73 -82.79, -21.09 -89.58, -20.21 -100.34" stroke="#1e1e1e" stroke-width="2" fill="none"></path></g></g><mask></mask><g transform="translate(803.3756955379204 540.9474061618628) rotate(0 7.8799896240234375 12.5)"><text x="0" y="17.52" font-family="Virgil, Segoe UI Emoji" font-size="20px" fill="#1e1e1e" text-anchor="start" style="white-space: pre;" direction="ltr" dominant-baseline="alphabetic">id</text></g><g stroke-linecap="round" transform="translate(10 10) rotate(0 165.60000610351562 177.89236699611723)"><path d="M32 0 C113.12 -1.74, 193.31 -3.44, 299.2 0 M32 0 C129.27 1.57, 226.61 2.37, 299.2 0 M299.2 0 C322.04 1.67, 330.99 9.45, 331.2 32 M299.2 0 C319.81 1.5, 331.71 9.87, 331.2 32 M331.2 32 C329.02 108.66, 328.97 184.55, 331.2 323.78 M331.2 32 C331.76 95.26, 330.38 159.64, 331.2 323.78 M331.2 323.78 C331.6 345.33, 318.53 355.02, 299.2 355.78 M331.2 323.78 C332.41 346.79, 318.31 354.89, 299.2 355.78 M299.2 355.78 C240.79 353.79, 184.01 353.74, 32 355.78 M299.2 355.78 C203.33 354.38, 107.83 354, 32 355.78 M32 355.78 C11.23 357.55, -1.99 344.78, 0 323.78 M32 355.78 C8.54 353.84, -2.18 345.19, 0 323.78 M0 323.78 C-1.93 228.93, -0.92 132.88, 0 32 M0 323.78 C-1.24 237.41, -1.17 152.28, 0 32 M0 32 C-1.66 9.01, 8.85 -0.34, 32 0 M0 32 C2.11 10.99, 9.81 0.39, 32 0" stroke="#1e1e1e" stroke-width="2" fill="none"></path></g><g transform="translate(119.14090474148782 33.486269756296) rotate(0 62.53797149658203 35)"><text x="62.53797149658203" y="24.528" font-family="Virgil, Segoe UI Emoji" font-size="28px" fill="#1e1e1e" text-anchor="middle" style="white-space: pre;" direction="ltr" dominant-baseline="alphabetic">SortCard</text><text x="62.53797149658203" y="59.528" font-family="Virgil, Segoe UI Emoji" font-size="28px" fill="#1e1e1e" text-anchor="middle" style="white-space: pre;" direction="ltr" dominant-baseline="alphabetic"></text></g><g transform="translate(108.34618589936247 136.9390721221076) rotate(0 66.43993377685547 12.5)"><text x="0" y="17.52" font-family="Virgil, Segoe UI Emoji" font-size="20px" fill="#1e1e1e" text-anchor="start" style="white-space: pre;" direction="ltr" dominant-baseline="alphabetic">setListCard()</text></g><g transform="translate(105.8297814794123 169.36471095465038) rotate(0 66.01993560791016 12.5)"><text x="0" y="17.52" font-family="Virgil, Segoe UI Emoji" font-size="20px" fill="#1e1e1e" text-anchor="start" style="white-space: pre;" direction="ltr" dominant-baseline="alphabetic">getListCard()</text></g><g transform="translate(103.36728663040367 208.6471198509766) rotate(0 69.16993713378906 12.5)"><text x="0" y="17.52" font-family="Virgil, Segoe UI Emoji" font-size="20px" fill="#1e1e1e" text-anchor="start" style="white-space: pre;" direction="ltr" dominant-baseline="alphabetic">askSortCard()</text></g><g transform="translate(88.55629356665338 240.05049091721014) rotate(0 92.06990814208984 12.5)"><text x="0" y="17.52" font-family="Virgil, Segoe UI Emoji" font-size="20px" fill="#1e1e1e" text-anchor="start" style="white-space: pre;" direction="ltr" dominant-baseline="alphabetic">sortCardsByType()</text></g><g transform="translate(86.29124261991763 280.3974012824404) rotate(0 94.5599136352539 12.5)"><text x="0" y="17.52" font-family="Virgil, Segoe UI Emoji" font-size="20px" fill="#1e1e1e" text-anchor="start" style="white-space: pre;" direction="ltr" dominant-baseline="alphabetic">sortCardsByValue()</text></g><g transform="translate(85.76391857171427 313.7634350757602) rotate(0 93.38990783691406 12.5)"><text x="0" y="17.52" font-family="Virgil, Segoe UI Emoji" font-size="20px" fill="#1e1e1e" text-anchor="start" style="white-space: pre;" direction="ltr" dominant-baseline="alphabetic">sortCardsByColor()</text></g><g stroke-linecap="round" transform="translate(16.00740718013867 401.5609847841824) rotate(0 165.60000610351562 158.26528581679872)"><path d="M32 0 C106.5 1.03, 181.54 0.22, 299.2 0 M32 0 C96.43 -2.5, 161.52 -2.38, 299.2 0 M299.2 0 C321.35 0.17, 332.82 9.41, 331.2 32 M299.2 0 C322.56 1.18, 332.94 10.74, 331.2 32 M331.2 32 C332.64 93.8, 330.84 156.11, 331.2 284.53 M331.2 32 C332.87 87.06, 332.06 140.71, 331.2 284.53 M331.2 284.53 C330.36 305.54, 321.97 317.41, 299.2 316.53 M331.2 284.53 C329.94 307.24, 320.65 317.44, 299.2 316.53 M299.2 316.53 C238.52 313.96, 176.4 314.93, 32 316.53 M299.2 316.53 C235.64 316.6, 172.65 317.56, 32 316.53 M32 316.53 C9.79 315.82, 0.53 304.91, 0 284.53 M32 316.53 C9.2 317.35, -1.97 305.62, 0 284.53 M0 284.53 C-2.1 205.97, -0.87 131.64, 0 32 M0 284.53 C-0.49 228.96, -0.32 174.89, 0 32 M0 32 C-1.72 11.47, 8.7 1.85, 32 0 M0 32 C-0.91 12.64, 8.52 -0.59, 32 0" stroke="#1e1e1e" stroke-width="2" fill="none"></path></g><g transform="translate(118.9743159499468 418.0167788975834) rotate(0 68.71196746826172 35)"><text x="68.71196746826172" y="24.528" font-family="Virgil, Segoe UI Emoji" font-size="28px" fill="#1e1e1e" text-anchor="middle" style="white-space: pre;" direction="ltr" dominant-baseline="alphabetic">FilterCard</text><text x="68.71196746826172" y="59.528" font-family="Virgil, Segoe UI Emoji" font-size="28px" fill="#1e1e1e" text-anchor="middle" style="white-space: pre;" direction="ltr" dominant-baseline="alphabetic"></text></g><g transform="translate(114.35359307950114 510.46958126339496) rotate(0 66.43993377685547 12.499999999999986)"><text x="0" y="17.52" font-family="Virgil, Segoe UI Emoji" font-size="20px" fill="#1e1e1e" text-anchor="start" style="white-space: pre;" direction="ltr" dominant-baseline="alphabetic">setListCard()</text></g><g transform="translate(109.37469381054234 549.177628992264) rotate(0 73.5799331665039 12.5)"><text x="0" y="17.52" font-family="Virgil, Segoe UI Emoji" font-size="20px" fill="#1e1e1e" text-anchor="start" style="white-space: pre;" direction="ltr" dominant-baseline="alphabetic">askFilterCard()</text></g><g transform="translate(93.56370074679205 586.5810000584975) rotate(0 96.2499008178711 12.5)"><text x="0" y="17.52" font-family="Virgil, Segoe UI Emoji" font-size="20px" fill="#1e1e1e" text-anchor="start" style="white-space: pre;" direction="ltr" dominant-baseline="alphabetic">filterCardsByType()</text></g><g transform="translate(91.2986498000563 626.9279104237278) rotate(0 98.73990631103516 12.5)"><text x="0" y="17.52" font-family="Virgil, Segoe UI Emoji" font-size="20px" fill="#1e1e1e" text-anchor="start" style="white-space: pre;" direction="ltr" dominant-baseline="alphabetic">filterCardsByValue()</text></g><g transform="translate(90.77132575185294 660.2939442170475) rotate(0 97.56990051269531 12.5)"><text x="0" y="17.52" font-family="Virgil, Segoe UI Emoji" font-size="20px" fill="#1e1e1e" text-anchor="start" style="white-space: pre;" direction="ltr" dominant-baseline="alphabetic">filterCardsByColor()</text></g><g stroke-linecap="round"><g transform="translate(672.6775822183965 288.3078172056712) rotate(0 -157.83860114471247 -53.211282054539495)"><path d="M-0.49 0.19 C-53.13 -17.34, -262.71 -88.23, -315.36 -106.14 M1.46 -0.76 C-51.36 -18.59, -263.59 -90.51, -316.14 -108.12" stroke="#1e1e1e" stroke-width="2" fill="none"></path></g><g transform="translate(672.6775822183965 288.3078172056712) rotate(0 -157.83860114471247 -53.211282054539495)"><path d="M-291.15 -108.72 C-299.39 -108.08, -307.79 -109.61, -316.14 -108.12 M-291.15 -108.72 C-296.48 -108.81, -301.63 -108.45, -316.14 -108.12" stroke="#1e1e1e" stroke-width="2" fill="none"></path></g><g transform="translate(672.6775822183965 288.3078172056712) rotate(0 -157.83860114471247 -53.211282054539495)"><path d="M-296.61 -92.51 C-302.86 -97.4, -309.39 -104.47, -316.14 -108.12 M-296.61 -92.51 C-300.64 -96.25, -304.56 -99.58, -316.14 -108.12" stroke="#1e1e1e" stroke-width="2" fill="none"></path></g></g><mask></mask><g stroke-linecap="round"><g transform="translate(674.0815197793244 311.3602593574057) rotate(0 -160.78262331215353 120.08712066592139)"><path d="M-1.1 -1.11 C-54.61 39.01, -268.74 200.04, -322.17 240.07 M0.52 0.93 C-52.49 41.29, -265.94 201.74, -319.78 241.56" stroke="#1e1e1e" stroke-width="2" fill="none"></path></g><g transform="translate(674.0815197793244 311.3602593574057) rotate(0 -160.78262331215353 120.08712066592139)"><path d="M-306.07 220.65 C-310.88 223.87, -312.05 229.08, -319.78 241.56 M-306.07 220.65 C-309.9 225.33, -312.41 228.97, -319.78 241.56" stroke="#1e1e1e" stroke-width="2" fill="none"></path></g><g transform="translate(674.0815197793244 311.3602593574057) rotate(0 -160.78262331215353 120.08712066592139)"><path d="M-295.84 234.35 C-302.7 234.62, -306.01 236.99, -319.78 241.56 M-295.84 234.35 C-301.78 236.05, -306.43 236.82, -319.78 241.56" stroke="#1e1e1e" stroke-width="2" fill="none"></path></g></g><mask></mask><g transform="translate(91.6150026812785 466.36427587364017) rotate(0 89.42993927001953 12.5)"><text x="0" y="17.52" font-family="Virgil, Segoe UI Emoji" font-size="20px" fill="#1e1e1e" text-anchor="start" style="white-space: pre;" direction="ltr" dominant-baseline="alphabetic">listCard : Card[ ]</text></g><g transform="translate(90.70542549416541 76.76609420060268) rotate(0 89.42993927001953 12.5)"><text x="0" y="17.52" font-family="Virgil, Segoe UI Emoji" font-size="20px" fill="#1e1e1e" text-anchor="start" style="white-space: pre;" direction="ltr" dominant-baseline="alphabetic">listCard : Card[ ]</text></g><g transform="translate(730.5493847175859 211.7025025078445) rotate(0 89.42993927001953 12.5)"><text x="0" y="17.52" font-family="Virgil, Segoe UI Emoji" font-size="20px" fill="#1e1e1e" text-anchor="start" style="white-space: pre;" direction="ltr" dominant-baseline="alphabetic">listCard : Card[ ]</text></g><g transform="translate(767.0570382980976 255.35451424777645) rotate(0 63.20994567871094 12.5)"><text x="0" y="17.52" font-family="Virgil, Segoe UI Emoji" font-size="20px" fill="#1e1e1e" text-anchor="start" style="white-space: pre;" direction="ltr" dominant-baseline="alphabetic">createCard()</text></g><g transform="translate(747.3206823444259 286.9070472269202) rotate(0 85.69991302490234 12.5)"><text x="0" y="17.52" font-family="Virgil, Segoe UI Emoji" font-size="20px" fill="#1e1e1e" text-anchor="start" style="white-space: pre;" direction="ltr" dominant-baseline="alphabetic">chooseCardType()</text></g><g transform="translate(771.9811440306073 320.92505517512546) rotate(0 68.28993225097656 12.5)"><text x="0" y="17.52" font-family="Virgil, Segoe UI Emoji" font-size="20px" fill="#1e1e1e" text-anchor="start" style="white-space: pre;" direction="ltr" dominant-baseline="alphabetic">displayCards()</text></g><g transform="translate(789.1181027300463 358.1792456105742) rotate(0 53.00994873046875 12.5)"><text x="0" y="17.52" font-family="Virgil, Segoe UI Emoji" font-size="20px" fill="#1e1e1e" text-anchor="start" style="white-space: pre;" direction="ltr" dominant-baseline="alphabetic">showMenu()</text></g><g transform="translate(589.0606255726129 817.9018272280163) rotate(0 77.24993896484375 12.5)"><text x="0" y="17.52" font-family="Virgil, Segoe UI Emoji" font-size="20px" fill="#1e1e1e" text-anchor="start" style="white-space: pre;" direction="ltr" dominant-baseline="alphabetic">color : UnoColor</text></g><g transform="translate(590.9959385996326 847.8248378267004) rotate(0 81.0699462890625 12.5)"><text x="0" y="17.52" font-family="Virgil, Segoe UI Emoji" font-size="20px" fill="#1e1e1e" text-anchor="start" style="white-space: pre;" direction="ltr" dominant-baseline="alphabetic">value : UnoValue</text></g><g transform="translate(565.9581418638527 889.3286036472443) rotate(0 87.01991271972656 12.5)"><text x="0" y="17.52" font-family="Virgil, Segoe UI Emoji" font-size="20px" fill="#1e1e1e" text-anchor="start" style="white-space: pre;" direction="ltr" dominant-baseline="alphabetic">chooseCardColor()</text></g><g transform="translate(565.4308178156493 922.6946374405641) rotate(0 88.1899185180664 12.5)"><text x="0" y="17.52" font-family="Virgil, Segoe UI Emoji" font-size="20px" fill="#1e1e1e" text-anchor="start" style="white-space: pre;" direction="ltr" dominant-baseline="alphabetic">chooseCardValue()</text></g><g transform="translate(1049.070187452895 814.8518451064175) rotate(0 84.35992431640625 12.5)"><text x="0" y="17.52" font-family="Virgil, Segoe UI Emoji" font-size="20px" fill="#1e1e1e" text-anchor="start" style="white-space: pre;" direction="ltr" dominant-baseline="alphabetic">color : SkyjoColor</text></g><g transform="translate(1048.0055004799146 844.7748557051017) rotate(0 88.179931640625 12.5)"><text x="0" y="17.52" font-family="Virgil, Segoe UI Emoji" font-size="20px" fill="#1e1e1e" text-anchor="start" style="white-space: pre;" direction="ltr" dominant-baseline="alphabetic">value : SkyjoValue</text></g><g transform="translate(1033.9677037441347 886.2786215256457) rotate(0 87.01991271972656 12.5)"><text x="0" y="17.52" font-family="Virgil, Segoe UI Emoji" font-size="20px" fill="#1e1e1e" text-anchor="start" style="white-space: pre;" direction="ltr" dominant-baseline="alphabetic">chooseCardColor()</text></g><g transform="translate(1038.4403796959314 919.6446553189654) rotate(0 88.1899185180664 12.5)"><text x="0" y="17.52" font-family="Virgil, Segoe UI Emoji" font-size="20px" fill="#1e1e1e" text-anchor="start" style="white-space: pre;" direction="ltr" dominant-baseline="alphabetic">chooseCardValue()</text></g><g transform="translate(698.6169415200754 504.6371255866082) rotate(0 35.5712890625 11.5)"><text x="0" y="18.400390625" font-family="Helvetica, Segoe UI Emoji" font-size="20px" fill="#1e1e1e" text-anchor="start" style="white-space: pre;" direction="ltr" dominant-baseline="alphabetic">abstract</text></g></svg>