<svg version="1.1" xmlns="http://www.w3.org/2000/svg" viewBox="0 0 3387.622774335756 5403.866680732539" width="3387.622774335756" height="5403.866680732539">
  <!-- svg-source:excalidraw -->
  
  <defs>
    <style class="style-fonts">
      @font-face {
        font-family: "Virgil";
        src: url("https://excalidraw.com/Virgil.woff2");
      }
      @font-face {
        font-family: "Cascadia";
        src: url("https://excalidraw.com/Cascadia.woff2");
      }
      @font-face {
        font-family: "Assistant";
        src: url("https://excalidraw.com/Assistant-Regular.woff2");
      }
    </style>
    
  </defs>
  <rect x="0" y="0" width="3387.622774335756" height="5403.866680732539" fill="#ffffff"></rect><g stroke-linecap="round" transform="translate(1385.1107284029702 178.7494475968282) rotate(0 356.66666666666663 60.666681925455705)"><path d="M30.33 0 C235.74 1.88, 440.73 0.86, 683 0 M30.33 0 C261.88 -1.89, 493.67 -1.19, 683 0 M683 0 C703.23 0.73, 714.59 9.64, 713.33 30.33 M683 0 C701.82 -0.08, 711.82 10.91, 713.33 30.33 M713.33 30.33 C713.85 54.54, 714.28 76.07, 713.33 91 M713.33 30.33 C713.99 54.57, 713.11 78.52, 713.33 91 M713.33 91 C713.82 113.14, 701.52 121.96, 683 121.33 M713.33 91 C711.17 110.1, 705.4 120.5, 683 121.33 M683 121.33 C507.25 122.89, 329.96 123.54, 30.33 121.33 M683 121.33 C467.28 119.44, 250.8 119.19, 30.33 121.33 M30.33 121.33 C9.25 119.54, -0.79 110.58, 0 91 M30.33 121.33 C12.1 119.05, -2.11 112.39, 0 91 M0 91 C-0.95 74.52, 0.8 60.37, 0 30.33 M0 91 C-0.72 67.54, -0.51 41.91, 0 30.33 M0 30.33 C1.44 8.17, 12.08 -0.82, 30.33 0 M0 30.33 C0.72 9.82, 7.94 -1.58, 30.33 0" stroke="#1e1e1e" stroke-width="2" fill="none"></path></g><g transform="translate(1459.7772729993244 221.08280890460807) rotate(0 268.0208435058594 17.5)"><text x="0" y="24.528" font-family="Virgil, Segoe UI Emoji" font-size="28px" fill="#1e1e1e" text-anchor="start" style="white-space: pre;" direction="ltr" dominant-baseline="alphabetic">Combien de cartes voulez-vous créer ?</text></g><g stroke-linecap="round"><g transform="translate(1556.162071537934 301.4161244360208) rotate(0 -3.1782542942679584 95.99998474121088)"><path d="M0.95 -0.09 C-0.29 32.15, -5.38 160.92, -6.56 192.98 M-0.01 -1.19 C-1.5 30.77, -6.49 158.88, -7.61 191.38" stroke="#1e1e1e" stroke-width="2" fill="none"></path></g><g transform="translate(1556.162071537934 301.4161244360208) rotate(0 -3.1782542942679584 95.99998474121088)"><path d="M-15.28 167.58 C-12.66 176.09, -7.99 185.79, -7.61 191.38 M-15.28 167.58 C-12.61 176.26, -11.31 183.31, -7.61 191.38" stroke="#1e1e1e" stroke-width="2" fill="none"></path></g><g transform="translate(1556.162071537934 301.4161244360208) rotate(0 -3.1782542942679584 95.99998474121088)"><path d="M1.81 168.22 C-1.96 176.62, -3.69 186.08, -7.61 191.38 M1.81 168.22 C-1.08 176.7, -5.34 183.54, -7.61 191.38" stroke="#1e1e1e" stroke-width="2" fill="none"></path></g></g><mask></mask><g stroke-linecap="round" transform="translate(1495.1106266777101 494.55897721922395) rotate(0 44.5714024135043 44.57142421177451)"><path d="M22.29 0 C34.3 1.64, 44.64 -0.55, 66.86 0 M22.29 0 C30.52 -0.58, 40.71 0.69, 66.86 0 M66.86 0 C81.16 1.44, 87.38 5.77, 89.14 22.29 M66.86 0 C83.4 0.37, 89.71 5.74, 89.14 22.29 M89.14 22.29 C88.47 37.92, 88.35 53.9, 89.14 66.86 M89.14 22.29 C89.28 34.86, 88.68 46.18, 89.14 66.86 M89.14 66.86 C88.78 80.02, 82.47 88.59, 66.86 89.14 M89.14 66.86 C88.42 81.31, 81.45 90.72, 66.86 89.14 M66.86 89.14 C53.39 88.04, 42.19 90.75, 22.29 89.14 M66.86 89.14 C49.99 88.59, 34.22 90.15, 22.29 89.14 M22.29 89.14 C7.8 90.03, -1.3 79.73, 0 66.86 M22.29 89.14 C7.42 90.52, 1.29 81.18, 0 66.86 M0 66.86 C-0.97 51.88, 2.2 36.97, 0 22.29 M0 66.86 C-0.79 57.72, -0.01 47.51, 0 22.29 M0 22.29 C-0.87 8.57, 6.04 1.42, 22.29 0 M0 22.29 C1.69 5.38, 6.11 0.65, 22.29 0" stroke="#e03131" stroke-width="2" fill="none"></path></g><g transform="translate(1522.539241702822 523.6666470485106) rotate(0 10.010416984558105 17.5)"><text x="0" y="24.528" font-family="Virgil, Segoe UI Emoji" font-size="28px" fill="#e03131" text-anchor="start" style="white-space: pre;" direction="ltr" dominant-baseline="alphabetic">2</text></g><g stroke-linecap="round" transform="translate(1765.6820029332907 497.70181728676937) rotate(0 53.14287458147311 49.71426827566967)"><path d="M24.86 0 C38.3 -0.71, 54.2 -0.16, 81.43 0 M24.86 0 C37.98 0.64, 51.3 0.23, 81.43 0 M81.43 0 C98.67 -0.55, 104.51 9.53, 106.29 24.86 M81.43 0 C98.83 -1.23, 106.75 8.9, 106.29 24.86 M106.29 24.86 C104.95 43.2, 106.54 61.85, 106.29 74.57 M106.29 24.86 C106.53 40.09, 106.84 55.77, 106.29 74.57 M106.29 74.57 C105.52 89.74, 96.45 100.16, 81.43 99.43 M106.29 74.57 C104.2 93.1, 96.1 97.37, 81.43 99.43 M81.43 99.43 C70.2 97.69, 57.75 100.89, 24.86 99.43 M81.43 99.43 C64.8 100.23, 48.42 98.78, 24.86 99.43 M24.86 99.43 C7.76 98.23, 1.05 90.27, 0 74.57 M24.86 99.43 C9.66 98.15, 0.86 90.13, 0 74.57 M0 74.57 C1.41 64.07, -1.49 54.75, 0 24.86 M0 74.57 C0.58 63.16, -0.76 49.89, 0 24.86 M0 24.86 C0.91 7.15, 7.06 -1.96, 24.86 0 M0 24.86 C0.19 9.94, 6.17 0.15, 24.86 0" stroke="#e03131" stroke-width="2" fill="none"></path></g><g transform="translate(1809.3963409634243 536.640436666796) rotate(0 9.677083015441895 17.5)"><text x="0" y="24.528" font-family="Virgil, Segoe UI Emoji" font-size="28px" fill="#e03131" text-anchor="start" style="white-space: pre;" direction="ltr" dominant-baseline="alphabetic">0</text></g><g transform="translate(576.4854627903286 1075.5771714725083) rotate(0 276.4270935058594 70)"><text x="0" y="24.528" font-family="Virgil, Segoe UI Emoji" font-size="28px" fill="#1e1e1e" text-anchor="start" style="white-space: pre;" direction="ltr" dominant-baseline="alphabetic">Bienvenue dans le créateur de cartes !</text><text x="0" y="59.528" font-family="Virgil, Segoe UI Emoji" font-size="28px" fill="#1e1e1e" text-anchor="start" style="white-space: pre;" direction="ltr" dominant-baseline="alphabetic">Que souhaitez-vous creer ?</text><text x="0" y="94.52799999999999" font-family="Virgil, Segoe UI Emoji" font-size="28px" fill="#1e1e1e" text-anchor="start" style="white-space: pre;" direction="ltr" dominant-baseline="alphabetic">1. Uno</text><text x="0" y="129.528" font-family="Virgil, Segoe UI Emoji" font-size="28px" fill="#1e1e1e" text-anchor="start" style="white-space: pre;" direction="ltr" dominant-baseline="alphabetic">2. Skyjo</text></g><g transform="translate(674.8662073611063 1321.0533110860688) rotate(0 3.8125 17.5)"><text x="0" y="24.528" font-family="Virgil, Segoe UI Emoji" font-size="28px" fill="#e03131" text-anchor="start" style="white-space: pre;" direction="ltr" dominant-baseline="alphabetic">1</text></g><g transform="translate(556.2374871230111 1939.758005561515) rotate(0 338.3541564941406 297.5)"><text x="0" y="24.528" font-family="Virgil, Segoe UI Emoji" font-size="28px" fill="#1e1e1e" text-anchor="start" style="white-space: pre;" direction="ltr" dominant-baseline="alphabetic">1. Creer une carte</text><text x="0" y="59.528" font-family="Virgil, Segoe UI Emoji" font-size="28px" fill="#1e1e1e" text-anchor="start" style="white-space: pre;" direction="ltr" dominant-baseline="alphabetic">Quelle valeur souhaitez-vous pour votre carte ?</text><text x="0" y="94.52799999999999" font-family="Virgil, Segoe UI Emoji" font-size="28px" fill="#1e1e1e" text-anchor="start" style="white-space: pre;" direction="ltr" dominant-baseline="alphabetic">1. Zero</text><text x="0" y="129.528" font-family="Virgil, Segoe UI Emoji" font-size="28px" fill="#1e1e1e" text-anchor="start" style="white-space: pre;" direction="ltr" dominant-baseline="alphabetic">2. One</text><text x="0" y="164.528" font-family="Virgil, Segoe UI Emoji" font-size="28px" fill="#1e1e1e" text-anchor="start" style="white-space: pre;" direction="ltr" dominant-baseline="alphabetic">3. Two</text><text x="0" y="199.528" font-family="Virgil, Segoe UI Emoji" font-size="28px" fill="#1e1e1e" text-anchor="start" style="white-space: pre;" direction="ltr" dominant-baseline="alphabetic">4. Three</text><text x="0" y="234.528" font-family="Virgil, Segoe UI Emoji" font-size="28px" fill="#1e1e1e" text-anchor="start" style="white-space: pre;" direction="ltr" dominant-baseline="alphabetic">5. Four</text><text x="0" y="269.528" font-family="Virgil, Segoe UI Emoji" font-size="28px" fill="#1e1e1e" text-anchor="start" style="white-space: pre;" direction="ltr" dominant-baseline="alphabetic">6. Five</text><text x="0" y="304.528" font-family="Virgil, Segoe UI Emoji" font-size="28px" fill="#1e1e1e" text-anchor="start" style="white-space: pre;" direction="ltr" dominant-baseline="alphabetic">7. Six</text><text x="0" y="339.528" font-family="Virgil, Segoe UI Emoji" font-size="28px" fill="#1e1e1e" text-anchor="start" style="white-space: pre;" direction="ltr" dominant-baseline="alphabetic">8. Seven</text><text x="0" y="374.528" font-family="Virgil, Segoe UI Emoji" font-size="28px" fill="#1e1e1e" text-anchor="start" style="white-space: pre;" direction="ltr" dominant-baseline="alphabetic">9. Eight</text><text x="0" y="409.528" font-family="Virgil, Segoe UI Emoji" font-size="28px" fill="#1e1e1e" text-anchor="start" style="white-space: pre;" direction="ltr" dominant-baseline="alphabetic">10. Nine</text><text x="0" y="444.528" font-family="Virgil, Segoe UI Emoji" font-size="28px" fill="#1e1e1e" text-anchor="start" style="white-space: pre;" direction="ltr" dominant-baseline="alphabetic">11. PlusTwo</text><text x="0" y="479.528" font-family="Virgil, Segoe UI Emoji" font-size="28px" fill="#1e1e1e" text-anchor="start" style="white-space: pre;" direction="ltr" dominant-baseline="alphabetic">12. Reverse</text><text x="0" y="514.528" font-family="Virgil, Segoe UI Emoji" font-size="28px" fill="#1e1e1e" text-anchor="start" style="white-space: pre;" direction="ltr" dominant-baseline="alphabetic">13. Pass</text><text x="0" y="549.528" font-family="Virgil, Segoe UI Emoji" font-size="28px" fill="#1e1e1e" text-anchor="start" style="white-space: pre;" direction="ltr" dominant-baseline="alphabetic">14. PlusFour</text><text x="0" y="584.528" font-family="Virgil, Segoe UI Emoji" font-size="28px" fill="#1e1e1e" text-anchor="start" style="white-space: pre;" direction="ltr" dominant-baseline="alphabetic">15. ChangeColor</text></g><g transform="translate(1409.9335571054958 2670.16245074377) rotate(0 9 17.5)"><text x="0" y="24.528" font-family="Virgil, Segoe UI Emoji" font-size="28px" fill="#e03131" text-anchor="start" style="white-space: pre;" direction="ltr" dominant-baseline="alphabetic">4</text></g><g transform="translate(1016.5519053707787 2983.8917299558143) rotate(0 179.0625 17.5)"><text x="0" y="24.528" font-family="Virgil, Segoe UI Emoji" font-size="28px" fill="#1e1e1e" text-anchor="start" style="white-space: pre;" direction="ltr" dominant-baseline="alphabetic">Voici la liste des cartes :</text></g><g transform="translate(1024.5518341630961 3033.5584271400594) rotate(0 208.8541717529297 17.5)"><text x="0" y="24.528" font-family="Virgil, Segoe UI Emoji" font-size="28px" fill="#1e1e1e" text-anchor="start" style="white-space: pre;" direction="ltr" dominant-baseline="alphabetic">Carte Uno : 3 de couleur Red</text></g><g transform="translate(577.2186330726016 1448.0247459063346) rotate(0 344.46875 17.5)"><text x="0" y="24.528" font-family="Virgil, Segoe UI Emoji" font-size="28px" fill="#1e1e1e" text-anchor="start" style="white-space: pre;" direction="ltr" dominant-baseline="alphabetic">Quelle couleur souhaitez-vous pour votre carte ?</text></g><g transform="translate(577.2186330726016 1483.0247459063346) rotate(0 39.91666793823242 17.5)"><text x="0" y="24.528" font-family="Virgil, Segoe UI Emoji" font-size="28px" fill="#1e1e1e" text-anchor="start" style="white-space: pre;" direction="ltr" dominant-baseline="alphabetic">1. Red</text></g><g transform="translate(577.2186330726016 1518.0247459063346) rotate(0 50.48958206176758 17.5)"><text x="0" y="24.528" font-family="Virgil, Segoe UI Emoji" font-size="28px" fill="#1e1e1e" text-anchor="start" style="white-space: pre;" direction="ltr" dominant-baseline="alphabetic">2. Blue</text></g><g transform="translate(577.2186330726016 1553.0247459063346) rotate(0 59.54166793823242 17.5)"><text x="0" y="24.528" font-family="Virgil, Segoe UI Emoji" font-size="28px" fill="#1e1e1e" text-anchor="start" style="white-space: pre;" direction="ltr" dominant-baseline="alphabetic">3. Green</text></g><g transform="translate(577.2186330726016 1588.0247459063346) rotate(0 58.58333206176758 17.5)"><text x="0" y="24.528" font-family="Virgil, Segoe UI Emoji" font-size="28px" fill="#1e1e1e" text-anchor="start" style="white-space: pre;" direction="ltr" dominant-baseline="alphabetic">4. Yellow</text></g><g transform="translate(577.2186330726016 1623.0247459063346) rotate(0 56.77083206176758 17.5)"><text x="0" y="24.528" font-family="Virgil, Segoe UI Emoji" font-size="28px" fill="#1e1e1e" text-anchor="start" style="white-space: pre;" direction="ltr" dominant-baseline="alphabetic">5. Black</text></g><g transform="translate(674.1519659699695 1747.814989509269) rotate(0 3.8125 17.5)"><text x="0" y="24.528" font-family="Virgil, Segoe UI Emoji" font-size="28px" fill="#e03131" text-anchor="start" style="white-space: pre;" direction="ltr" dominant-baseline="alphabetic">1</text></g><g transform="translate(1393.9684056439828 3507.98183819149) rotate(0 189.3229217529297 17.5)"><text x="0" y="24.528" font-family="Virgil, Segoe UI Emoji" font-size="28px" fill="#1e1e1e" text-anchor="start" style="white-space: pre;" direction="ltr" dominant-baseline="alphabetic">Que souhaitez-vous faire ?</text></g><g transform="translate(1379.3017593223683 3563.315191869876) rotate(0 125.65625 17.5)"><text x="0" y="24.528" font-family="Virgil, Segoe UI Emoji" font-size="28px" fill="#1e1e1e" text-anchor="start" style="white-space: pre;" direction="ltr" dominant-baseline="alphabetic">1. Creer une carte</text></g><g transform="translate(1379.3017593223683 3606.981777156334) rotate(0 153.46875 17.5)"><text x="0" y="24.528" font-family="Virgil, Segoe UI Emoji" font-size="28px" fill="#1e1e1e" text-anchor="start" style="white-space: pre;" direction="ltr" dominant-baseline="alphabetic">2. Afficher les cartes</text></g><g transform="translate(1379.3017593223683 3653.315191869876) rotate(0 133.4791717529297 17.5)"><text x="0" y="24.528" font-family="Virgil, Segoe UI Emoji" font-size="28px" fill="#1e1e1e" text-anchor="start" style="white-space: pre;" direction="ltr" dominant-baseline="alphabetic">3. Trier les cartes</text></g><g transform="translate(1379.3017593223683 3698.315191869876) rotate(0 141.3229217529297 17.5)"><text x="0" y="24.528" font-family="Virgil, Segoe UI Emoji" font-size="28px" fill="#1e1e1e" text-anchor="start" style="white-space: pre;" direction="ltr" dominant-baseline="alphabetic">4. Filtrer les cartes</text></g><g transform="translate(1379.3017593223683 3743.315191869876) rotate(0 70.19791412353516 17.5)"><text x="0" y="24.528" font-family="Virgil, Segoe UI Emoji" font-size="28px" fill="#1e1e1e" text-anchor="start" style="white-space: pre;" direction="ltr" dominant-baseline="alphabetic">5. Quitter</text></g><g stroke-linecap="round"><g transform="translate(1818.8636745079825 604.8924475183528) rotate(0 -39.452515670711364 1437.916262835639)"><path d="M0 -0.4 C-13.15 478.8, -65.11 2395.24, -78.46 2874.8 M-1.46 -1.66 C-14.77 477.7, -66.45 2396.32, -79.18 2875.79" stroke="#1e1e1e" stroke-width="2" fill="none"></path></g><g transform="translate(1818.8636745079825 604.8924475183528) rotate(0 -39.452515670711364 1437.916262835639)"><path d="M-87.1 2852.08 C-85.19 2860.82, -83.57 2866.09, -79.18 2875.79 M-87.1 2852.08 C-84.3 2860.82, -80.12 2871.06, -79.18 2875.79" stroke="#1e1e1e" stroke-width="2" fill="none"></path></g><g transform="translate(1818.8636745079825 604.8924475183528) rotate(0 -39.452515670711364 1437.916262835639)"><path d="M-70 2852.54 C-73.86 2861.12, -78.01 2866.24, -79.18 2875.79 M-70 2852.54 C-73.89 2861.04, -76.38 2871.1, -79.18 2875.79" stroke="#1e1e1e" stroke-width="2" fill="none"></path></g></g><mask></mask><g stroke-linecap="round" transform="translate(534.7354954877339 1035.482041642011) rotate(0 309.3333180745443 98.00000508626295)"><path d="M32 0 C151.1 -0.53, 271.34 -0.05, 586.67 0 M32 0 C170.74 0.61, 309.51 0.75, 586.67 0 M586.67 0 C608.83 0.22, 617.79 9.55, 618.67 32 M586.67 0 C609.92 0.3, 619.11 8.45, 618.67 32 M618.67 32 C621.58 80.73, 618.86 133.83, 618.67 164 M618.67 32 C617.57 69.37, 617.22 106.87, 618.67 164 M618.67 164 C617.06 185.09, 608.33 195.27, 586.67 196 M618.67 164 C617.62 186.8, 607.02 193.92, 586.67 196 M586.67 196 C383.1 194.11, 177.45 195.27, 32 196 M586.67 196 C457.5 196.45, 329.3 196, 32 196 M32 196 C10.27 194.94, -1.88 186.86, 0 164 M32 196 C11.59 196.78, -0.01 186.77, 0 164 M0 164 C-0.97 123.85, 2 80.21, 0 32 M0 164 C-0.73 133.18, -0.72 102.78, 0 32 M0 32 C1.78 10.93, 11.17 0.48, 32 0 M0 32 C-0.09 8.66, 12.5 -1.72, 32 0" stroke="#1e1e1e" stroke-width="2" fill="none"></path></g><g stroke-linecap="round" transform="translate(637.1163752077864 1296.6248377497118) rotate(0 41.33331298828125 41.33338928222656)"><path d="M20.67 0 C36.08 -0.81, 49.02 -0.75, 62 0 M20.67 0 C36.72 0.41, 53.85 -0.25, 62 0 M62 0 C74.02 -0.17, 82.76 5.6, 82.67 20.67 M62 0 C75.46 0.21, 84.86 7.21, 82.67 20.67 M82.67 20.67 C82.23 28.41, 84.16 38.42, 82.67 62 M82.67 20.67 C81.93 33.7, 81.88 45.07, 82.67 62 M82.67 62 C81.03 77.04, 74.62 81.4, 62 82.67 M82.67 62 C84.34 75.59, 73.94 80.9, 62 82.67 M62 82.67 C50 84.32, 40.62 82.11, 20.67 82.67 M62 82.67 C47.63 82.94, 33.13 81.94, 20.67 82.67 M20.67 82.67 C8.39 81.97, 1.31 75.27, 0 62 M20.67 82.67 C9.18 83.89, -1.7 77.42, 0 62 M0 62 C0.11 51.93, 0.27 41.63, 0 20.67 M0 62 C0.25 50.81, 1.31 39.74, 0 20.67 M0 20.67 C1.74 7.12, 7.02 1.77, 20.67 0 M0 20.67 C-1.18 6.54, 8.39 -1.58, 20.67 0" stroke="#e03131" stroke-width="2" fill="none"></path></g><g stroke-linecap="round" transform="translate(532.0688186485414 1424.1486777910995) rotate(0 398.6666615804036 127.33334859212243)"><path d="M32 0 C191.71 -1.74, 352.39 -1.77, 765.33 0 M32 0 C260.04 0.92, 487.15 1.29, 765.33 0 M765.33 0 C786.69 -0.07, 795.86 11.63, 797.33 32 M765.33 0 C786.17 2.03, 798.54 9.45, 797.33 32 M797.33 32 C799.91 72.96, 800.31 115.34, 797.33 222.67 M797.33 32 C795.51 75.39, 795.18 118.29, 797.33 222.67 M797.33 222.67 C797.28 244.77, 784.82 255.54, 765.33 254.67 M797.33 222.67 C799.14 243.77, 784.58 253.84, 765.33 254.67 M765.33 254.67 C598.41 255.82, 430.82 256.95, 32 254.67 M765.33 254.67 C542.31 254.87, 318.83 255.33, 32 254.67 M32 254.67 C9.66 255.02, 0.58 244.73, 0 222.67 M32 254.67 C12.39 256.87, 1.72 244.13, 0 222.67 M0 222.67 C-3.35 145.95, 0.07 68.51, 0 32 M0 222.67 C-2.16 177.4, -2.52 130.9, 0 32 M0 32 C1.65 9.71, 9.7 -0.4, 32 0 M0 32 C2.14 8.8, 12.24 1.5, 32 0" stroke="#1e1e1e" stroke-width="2" fill="none"></path></g><g stroke-linecap="round" transform="translate(636.7354904014712 1726.8157233843613) rotate(0 42.66667683919269 37.999903361002566)"><path d="M19 0 C35.61 0.91, 52.09 1.06, 66.33 0 M19 0 C29.44 0.22, 42.71 0.25, 66.33 0 M66.33 0 C79.51 1.49, 84.92 6.61, 85.33 19 M66.33 0 C77.73 0.17, 83.68 5.52, 85.33 19 M85.33 19 C83.57 26.89, 85.44 38.81, 85.33 57 M85.33 19 C85.34 33.46, 85.15 49.37, 85.33 57 M85.33 57 C84.33 70.55, 79.64 75.3, 66.33 76 M85.33 57 C83.78 70.31, 78.53 77.97, 66.33 76 M66.33 76 C53.3 76.13, 38.42 75.67, 19 76 M66.33 76 C55.79 75.71, 46.66 76.46, 19 76 M19 76 C5.17 76.85, -1.65 71.6, 0 57 M19 76 C8.35 75.23, 1.57 68.07, 0 57 M0 57 C-0.46 45.24, -1.18 36.5, 0 19 M0 57 C-0.79 46.16, -0.1 36.77, 0 19 M0 19 C1.67 7, 6.23 -1.06, 19 0 M0 19 C-0.72 5.48, 5.75 -0.69, 19 0" stroke="#e03131" stroke-width="2" fill="none"></path></g><g stroke-linecap="round" transform="translate(518.0686762331768 1915.4821052202988) rotate(0 373.33335876464844 320.6666628519695)"><path d="M32 0 C253.17 0.03, 474.2 0.39, 714.67 0 M32 0 C260.55 1.39, 488.95 1.37, 714.67 0 M714.67 0 C734.67 1.17, 745.17 9.89, 746.67 32 M714.67 0 C737.34 -0.86, 745.25 11.32, 746.67 32 M746.67 32 C744.79 183.91, 744.49 334.84, 746.67 609.33 M746.67 32 C746.58 170.92, 747.15 309.24, 746.67 609.33 M746.67 609.33 C744.84 630.84, 736.12 639.65, 714.67 641.33 M746.67 609.33 C745.92 628.63, 735.63 642.27, 714.67 641.33 M714.67 641.33 C554.88 640.91, 394.52 640.59, 32 641.33 M714.67 641.33 C470.01 641.55, 225.09 642.3, 32 641.33 M32 641.33 C11.33 639.95, -1.54 632.22, 0 609.33 M32 641.33 C12 641.36, -0.5 628.6, 0 609.33 M0 609.33 C-1.14 487.83, -0.39 365.9, 0 32 M0 609.33 C2.22 378.59, 2.61 147.72, 0 32 M0 32 C-1.07 12.67, 9.78 -1.3, 32 0 M0 32 C-0.69 9.73, 9.41 -1.6, 32 0" stroke="#1e1e1e" stroke-width="2" fill="none"></path></g><g stroke-linecap="round" transform="translate(1362.6219922512828 2627.6006882519077) rotate(0 56.000010172526004 58.66666158040357)"><path d="M28 0 C41.85 0.03, 54.52 2.06, 84 0 M28 0 C40.71 0.03, 54.79 -0.08, 84 0 M84 0 C104.38 -0.85, 111.79 11.32, 112 28 M84 0 C100.74 -1.43, 112.34 9.66, 112 28 M112 28 C112.3 48.13, 112.11 67.18, 112 89.33 M112 28 C112.42 47.38, 113.07 68.74, 112 89.33 M112 89.33 C113.73 107.13, 101.57 115.39, 84 117.33 M112 89.33 C111.4 106.6, 102.46 116.13, 84 117.33 M84 117.33 C70.18 115.72, 57.45 117.08, 28 117.33 M84 117.33 C71.48 117.57, 57.71 118.46, 28 117.33 M28 117.33 C9.02 117.97, -1.19 108.7, 0 89.33 M28 117.33 C7.22 119.56, -0.93 108.17, 0 89.33 M0 89.33 C0.26 76.02, 1.75 60.72, 0 28 M0 89.33 C0.48 66.19, 0.74 43.43, 0 28 M0 28 C-0.94 8.71, 9.87 0.53, 28 0 M0 28 C-0.57 9.58, 9.56 1.9, 28 0" stroke="#e03131" stroke-width="2" fill="none"></path></g><g stroke-linecap="round" transform="translate(974.0689407188536 2944.1489321042513) rotate(0 247.33332316080725 78.6666615804038)"><path d="M32 0 C153.35 1.01, 273.51 0.73, 462.67 0 M32 0 C150.84 -1.59, 268.86 -1.18, 462.67 0 M462.67 0 C483.06 0.8, 495.39 10.22, 494.67 32 M462.67 0 C482.96 0.72, 494.2 8.98, 494.67 32 M494.67 32 C494.38 51.78, 494.2 75.13, 494.67 125.33 M494.67 32 C496.33 51.2, 496.28 69.47, 494.67 125.33 M494.67 125.33 C495.03 145.82, 482.48 157.06, 462.67 157.33 M494.67 125.33 C493.36 147.62, 483.56 159.13, 462.67 157.33 M462.67 157.33 C341.04 156.05, 222.07 155.8, 32 157.33 M462.67 157.33 C344.8 159.08, 226.14 159.79, 32 157.33 M32 157.33 C12.24 156.73, -1.1 148.65, 0 125.33 M32 157.33 C10.92 155.32, -0.45 148.49, 0 125.33 M0 125.33 C0.75 96.44, -0.79 70.77, 0 32 M0 125.33 C0.81 101.4, 0.49 76.9, 0 32 M0 32 C-0.21 10.86, 11.59 0.21, 32 0 M0 32 C-1.94 9.03, 9.98 -1.55, 32 0" stroke="#1e1e1e" stroke-width="2" fill="none"></path></g><g stroke-linecap="round"><g transform="translate(1822.0815927856954 303.0591981083594) rotate(0 -4.410283634568827 96.33329391479484)"><path d="M-0.98 -0.09 C-2.4 32.01, -7.8 160.49, -8.92 192.78 M0.71 -1.19 C-0.84 31.12, -8.49 162.21, -9.92 194.38" stroke="#1e1e1e" stroke-width="2" fill="none"></path></g><g transform="translate(1822.0815927856954 303.0591981083594) rotate(0 -4.410283634568827 96.33329391479484)"><path d="M-17.23 170.48 C-15.41 176.73, -13.12 185.1, -9.92 194.38 M-17.23 170.48 C-14.93 178.65, -11.25 188.58, -9.92 194.38" stroke="#1e1e1e" stroke-width="2" fill="none"></path></g><g transform="translate(1822.0815927856954 303.0591981083594) rotate(0 -4.410283634568827 96.33329391479484)"><path d="M-0.15 171.37 C-2.87 177.24, -5.12 185.38, -9.92 194.38 M-0.15 171.37 C-4.42 179.27, -7.31 188.86, -9.92 194.38" stroke="#1e1e1e" stroke-width="2" fill="none"></path></g></g><mask></mask><g stroke-linecap="round" transform="translate(1348.6020290396311 3490.1059793396485) rotate(0 230.2857317243304 155.52380879720045)"><path d="M32 0 C164.45 -1.3, 296.67 -0.98, 428.57 0 M32 0 C180.73 2.17, 328.54 1.68, 428.57 0 M428.57 0 C450.65 1.56, 458.9 10.28, 460.57 32 M428.57 0 C451.21 2.1, 461.39 11.3, 460.57 32 M460.57 32 C462.5 123.38, 462.65 215.7, 460.57 279.05 M460.57 32 C459.47 108.95, 459.02 187.59, 460.57 279.05 M460.57 279.05 C459.18 302.31, 450.22 311.21, 428.57 311.05 M460.57 279.05 C459.2 300.2, 449.28 309.56, 428.57 311.05 M428.57 311.05 C279.37 310.59, 132.02 309.27, 32 311.05 M428.57 311.05 C289.67 310.14, 151.67 310.82, 32 311.05 M32 311.05 C10.24 312.8, 1.06 300.14, 0 279.05 M32 311.05 C10.17 309, 0 302.15, 0 279.05 M0 279.05 C-2.54 203.16, -1.73 125.99, 0 32 M0 279.05 C-0.1 226.83, -1.42 175.66, 0 32 M0 32 C0.46 9.82, 10.5 1.53, 32 0 M0 32 C2 12.39, 8.71 1.7, 32 0" stroke="#1e1e1e" stroke-width="2" fill="none"></path></g><g stroke-linecap="round"><g transform="translate(1542.5238755317353 592.2788090359331) rotate(0 -277.6580319623001 218.13219052873762)"><path d="M-0.73 0.58 C-93.31 73.44, -462.95 363.9, -555.48 436.46 M1.08 -0.17 C-91.67 72.37, -463.5 361.57, -556.51 434.44" stroke="#1e1e1e" stroke-width="2" fill="none"></path></g><g transform="translate(1542.5238755317353 592.2788090359331) rotate(0 -277.6580319623001 218.13219052873762)"><path d="M-543.25 413.25 C-546.38 419.22, -550.97 424.84, -556.51 434.44 M-543.25 413.25 C-546.04 420.03, -550.62 424.01, -556.51 434.44" stroke="#1e1e1e" stroke-width="2" fill="none"></path></g><g transform="translate(1542.5238755317353 592.2788090359331) rotate(0 -277.6580319623001 218.13219052873762)"><path d="M-532.73 426.73 C-538.92 428.62, -546.65 430.21, -556.51 434.44 M-532.73 426.73 C-538.29 429.93, -545.74 430.24, -556.51 434.44" stroke="#1e1e1e" stroke-width="2" fill="none"></path></g></g><mask></mask><g stroke-linecap="round"><g transform="translate(609.3027683225755 1235.3432361176) rotate(0 48.020968782627335 28.9713385445732)"><path d="M-1.05 0.68 C15.05 10.35, 80.07 48.67, 96.28 58.09 M0.59 -0.01 C16.59 9.88, 79.64 50.02, 95.46 59.71" stroke="#1e1e1e" stroke-width="2" fill="none"></path></g><g transform="translate(609.3027683225755 1235.3432361176) rotate(0 48.020968782627335 28.9713385445732)"><path d="M71.01 54.49 C78.77 56.52, 84.51 57.8, 95.46 59.71 M71.01 54.49 C77.06 55.08, 82.21 56.69, 95.46 59.71" stroke="#1e1e1e" stroke-width="2" fill="none"></path></g><g transform="translate(609.3027683225755 1235.3432361176) rotate(0 48.020968782627335 28.9713385445732)"><path d="M80.09 40 C85.39 45.87, 88.68 51.08, 95.46 59.71 M80.09 40 C83.86 44.01, 86.85 49.07, 95.46 59.71" stroke="#1e1e1e" stroke-width="2" fill="none"></path></g></g><mask></mask><g stroke-linecap="round"><g transform="translate(807.9297035390248 1422.943043856858) rotate(0 -40.405943366386914 -17.866018951975434)"><path d="M-0.65 -0.13 C-14.11 -6.36, -66.61 -30.61, -79.93 -36.47 M1.22 -1.25 C-12.41 -7.42, -66.68 -29.29, -80.42 -35.31" stroke="#1e1e1e" stroke-width="2" fill="none"></path></g><g transform="translate(807.9297035390248 1422.943043856858) rotate(0 -40.405943366386914 -17.866018951975434)"><path d="M-55.45 -34.12 C-64.96 -33.24, -75.25 -34.77, -80.42 -35.31 M-55.45 -34.12 C-63.06 -34.63, -71.71 -33.95, -80.42 -35.31" stroke="#1e1e1e" stroke-width="2" fill="none"></path></g><g transform="translate(807.9297035390248 1422.943043856858) rotate(0 -40.405943366386914 -17.866018951975434)"><path d="M-62.06 -18.35 C-69.24 -23.29, -77.07 -30.69, -80.42 -35.31 M-62.06 -18.35 C-67.36 -24.18, -73.79 -28.81, -80.42 -35.31" stroke="#1e1e1e" stroke-width="2" fill="none"></path></g></g><mask></mask><g stroke-linecap="round"><g transform="translate(832.8751943033224 1681.3431140472876) rotate(0 -51.04770720369719 27.448385302916904)"><path d="M0.29 0.2 C-16.7 9.04, -84.67 45, -101.93 53.95 M-1.02 -0.74 C-18.15 8.14, -86.12 45.75, -102.79 55" stroke="#1e1e1e" stroke-width="2" fill="none"></path></g><g transform="translate(832.8751943033224 1681.3431140472876) rotate(0 -51.04770720369719 27.448385302916904)"><path d="M-86.37 36.14 C-90.83 42.12, -97.66 45.53, -102.79 55 M-86.37 36.14 C-89.31 39.63, -94.16 44.86, -102.79 55" stroke="#1e1e1e" stroke-width="2" fill="none"></path></g><g transform="translate(832.8751943033224 1681.3431140472876) rotate(0 -51.04770720369719 27.448385302916904)"><path d="M-78.09 51.1 C-85.15 52.61, -94.47 51.53, -102.79 55 M-78.09 51.1 C-82.89 51.24, -89.56 53.19, -102.79 55" stroke="#1e1e1e" stroke-width="2" fill="none"></path></g></g><mask></mask><g stroke-linecap="round"><g transform="translate(655.6921236107044 1808.5431491425024) rotate(0 112.20603277584992 52.96947803889816)"><path d="M-0.91 -0.55 C36.47 16.98, 185.95 88.44, 223.52 106.33 M0.82 1.78 C38.63 19.44, 188.6 87.23, 225.76 104.42" stroke="#1e1e1e" stroke-width="2" fill="none"></path></g><g transform="translate(655.6921236107044 1808.5431491425024) rotate(0 112.20603277584992 52.96947803889816)"><path d="M200.84 102.44 C205.88 101.61, 213.38 103.75, 225.76 104.42 M200.84 102.44 C209.37 102.71, 218.35 104.09, 225.76 104.42" stroke="#1e1e1e" stroke-width="2" fill="none"></path></g><g transform="translate(655.6921236107044 1808.5431491425024) rotate(0 112.20603277584992 52.96947803889816)"><path d="M207.95 86.88 C211.45 89.7, 217.25 95.54, 225.76 104.42 M207.95 86.88 C213.95 92.9, 220.29 100.04, 225.76 104.42" stroke="#1e1e1e" stroke-width="2" fill="none"></path></g></g><mask></mask><g stroke-linecap="round"><g transform="translate(1272.0631104548595 2458.2660795859724) rotate(0 60.725400219985715 78.7118608389942)"><path d="M-0.63 1.09 C19.64 27.35, 101.79 132.24, 122.33 158.28 M1.24 0.62 C21.37 26.48, 101.65 130.27, 121.84 156.61" stroke="#1e1e1e" stroke-width="2" fill="none"></path></g><g transform="translate(1272.0631104548595 2458.2660795859724) rotate(0 60.725400219985715 78.7118608389942)"><path d="M100.73 143.22 C110.16 149.57, 117.31 154.75, 121.84 156.61 M100.73 143.22 C106.57 147.31, 113.4 151.92, 121.84 156.61" stroke="#1e1e1e" stroke-width="2" fill="none"></path></g><g transform="translate(1272.0631104548595 2458.2660795859724) rotate(0 60.725400219985715 78.7118608389942)"><path d="M114.27 132.78 C118.94 142.79, 121.25 151.69, 121.84 156.61 M114.27 132.78 C116.08 140.03, 118.92 147.71, 121.84 156.61" stroke="#1e1e1e" stroke-width="2" fill="none"></path></g></g><mask></mask><g stroke-linecap="round"><g transform="translate(1178.645244058878 3108.276697624762) rotate(0 111.5543432156525 188.3945984842196)"><path d="M-0.86 1.1 C36.56 63.77, 187.1 312.97, 224.24 375.63 M0.88 0.63 C38.28 63.44, 186.65 313.59, 223.88 376.55" stroke="#1e1e1e" stroke-width="2" fill="none"></path></g><g transform="translate(1178.645244058878 3108.276697624762) rotate(0 111.5543432156525 188.3945984842196)"><path d="M204.55 360.7 C211.61 367.04, 213.11 367.59, 223.88 376.55 M204.55 360.7 C210.01 365.86, 217.72 369.85, 223.88 376.55" stroke="#1e1e1e" stroke-width="2" fill="none"></path></g><g transform="translate(1178.645244058878 3108.276697624762) rotate(0 111.5543432156525 188.3945984842196)"><path d="M219.27 351.98 C222.28 360.6, 219.77 363.52, 223.88 376.55 M219.27 351.98 C220.1 360.01, 223.13 366.78, 223.88 376.55" stroke="#1e1e1e" stroke-width="2" fill="none"></path></g></g><mask></mask><g stroke-linecap="round"><g transform="translate(1348.9431420609444 4368.73305006074) rotate(0 -380.81521684910865 -710.456632180448)"><path d="M-1.06 -0.72 C-109.11 18.75, -521.84 373.5, -648.58 117.47 C-775.31 -138.57, -833.86 -1279.23, -761.47 -1536.95 C-689.07 -1794.68, -305.46 -1447.14, -214.21 -1428.89 M0.59 1.52 C-107.63 20.61, -522.55 372.59, -649.68 115.83 C-776.8 -140.93, -834.82 -1281.67, -762.15 -1539.03 C-689.47 -1796.4, -304.82 -1447.06, -213.63 -1428.37" stroke="#1e1e1e" stroke-width="2" fill="none"></path></g><g transform="translate(1348.9431420609444 4368.73305006074) rotate(0 -380.81521684910865 -710.456632180448)"><path d="M-238.31 -1432.33 C-232.62 -1431.48, -223.01 -1429.64, -213.63 -1428.37 M-238.31 -1432.33 C-229.12 -1430.45, -220.82 -1429.97, -213.63 -1428.37" stroke="#1e1e1e" stroke-width="2" fill="none"></path></g><g transform="translate(1348.9431420609444 4368.73305006074) rotate(0 -380.81521684910865 -710.456632180448)"><path d="M-229.98 -1447.27 C-226.53 -1442.34, -219.24 -1436.33, -213.63 -1428.37 M-229.98 -1447.27 C-223.56 -1440.35, -218.11 -1434.77, -213.63 -1428.37" stroke="#1e1e1e" stroke-width="2" fill="none"></path></g></g><mask></mask><g stroke-linecap="round"><g transform="translate(1635.9129665995645 3584.6019441782446) rotate(0 39.25479307628916 -1711.1556581844918)"><path d="M1.1 0.92 C165.28 -46.04, 842.09 259.89, 984.24 -281.43 C1126.38 -822.76, 1168.98 -2723.59, 853.98 -3247.04 C538.97 -3770.49, -613.24 -3537.45, -905.8 -3422.12 C-1198.37 -3306.79, -902.41 -2699.76, -901.42 -2555.08 M0.22 0.36 C164.28 -46.52, 840.88 260.69, 983.06 -280.39 C1125.24 -821.47, 1168.02 -2722.68, 853.28 -3246.1 C538.55 -3769.52, -613.22 -3536.16, -905.37 -3420.91 C-1197.52 -3305.67, -900.23 -2699.06, -899.63 -2554.64" stroke="#1e1e1e" stroke-width="2" fill="none"></path></g><g transform="translate(1635.9129665995645 3584.6019441782446) rotate(0 39.25479307628916 -1711.1556581844918)"><path d="M-913.57 -2575.39 C-908.76 -2571.46, -908.65 -2565.73, -899.63 -2554.64 M-913.57 -2575.39 C-910.8 -2570.38, -906.18 -2564.51, -899.63 -2554.64" stroke="#1e1e1e" stroke-width="2" fill="none"></path></g><g transform="translate(1635.9129665995645 3584.6019441782446) rotate(0 39.25479307628916 -1711.1556581844918)"><path d="M-896.97 -2579.5 C-895.97 -2574.47, -899.69 -2567.79, -899.63 -2554.64 M-896.97 -2579.5 C-898.16 -2573.48, -897.52 -2566.62, -899.63 -2554.64" stroke="#1e1e1e" stroke-width="2" fill="none"></path></g></g><mask></mask><g transform="translate(1067.0798261809214 4167.277023145591) rotate(0 220.4895782470703 17.5)"><text x="0" y="24.528" font-family="Virgil, Segoe UI Emoji" font-size="28px" fill="#1e1e1e" text-anchor="start" style="white-space: pre;" direction="ltr" dominant-baseline="alphabetic">Comment voulez-vous les trier ?</text></g><g transform="translate(1067.0798261809214 4212.277023145591) rotate(0 64.95833587646484 17.5)"><text x="0" y="24.528" font-family="Virgil, Segoe UI Emoji" font-size="28px" fill="#1e1e1e" text-anchor="start" style="white-space: pre;" direction="ltr" dominant-baseline="alphabetic">1. Couleur</text></g><g transform="translate(1067.0798261809214 4257.277023145591) rotate(0 62.96875 17.5)"><text x="0" y="24.528" font-family="Virgil, Segoe UI Emoji" font-size="28px" fill="#1e1e1e" text-anchor="start" style="white-space: pre;" direction="ltr" dominant-baseline="alphabetic">2. Valeur</text></g><g transform="translate(1067.0798261809214 4302.277023145591) rotate(0 52.97916793823242 17.5)"><text x="0" y="24.528" font-family="Virgil, Segoe UI Emoji" font-size="28px" fill="#1e1e1e" text-anchor="start" style="white-space: pre;" direction="ltr" dominant-baseline="alphabetic">3. Type</text></g><g stroke-linecap="round" transform="translate(997.746482675062 4141.94379662378) rotate(0 305.3333282470703 110.66659291585302)"><path d="M32 0 C233.09 0.1, 434.44 -0.26, 578.67 0 M32 0 C159.85 1.82, 286.87 2.15, 578.67 0 M578.67 0 C598.55 0.25, 609.1 8.98, 610.67 32 M578.67 0 C601.15 -0.76, 611.49 9.46, 610.67 32 M610.67 32 C608.44 86.83, 607.94 144.56, 610.67 189.33 M610.67 32 C609.79 72.98, 610.61 113.85, 610.67 189.33 M610.67 189.33 C611.56 210.91, 601.95 223.14, 578.67 221.33 M610.67 189.33 C612.05 209.89, 599.82 221.28, 578.67 221.33 M578.67 221.33 C413.16 219.66, 248.06 220.64, 32 221.33 M578.67 221.33 C378.49 219.44, 178.65 219.49, 32 221.33 M32 221.33 C12.62 219.73, -0.3 212.5, 0 189.33 M32 221.33 C10.62 220.72, 0.01 212.61, 0 189.33 M0 189.33 C-0.25 141.87, -2.43 93.44, 0 32 M0 189.33 C-1.37 145.52, -0.95 100.67, 0 32 M0 32 C-1.31 9.18, 10.64 0.85, 32 0 M0 32 C1.59 10.06, 10.15 1.91, 32 0" stroke="#1e1e1e" stroke-width="2" fill="none"></path></g><g stroke-linecap="round"><g transform="translate(1370.3131000049777 3672.206490340148) rotate(0 -83.66681671142464 231.58779212056788)"><path d="M-0.32 0.99 C-28.54 8.57, -153.63 -32.26, -168.34 44.73 C-183.06 121.71, -101.71 393.07, -88.62 462.9 M1.71 0.46 C-26.23 8.22, -150.99 -31.53, -166.16 45.74 C-181.34 123.01, -102 394.79, -89.33 464.07" stroke="#1e1e1e" stroke-width="2" fill="none"></path></g><g transform="translate(1370.3131000049777 3672.206490340148) rotate(0 -83.66681671142464 231.58779212056788)"><path d="M-103.04 443.17 C-96.32 449.47, -94.43 459.29, -89.33 464.07 M-103.04 443.17 C-100.33 449.82, -96.12 454.25, -89.33 464.07" stroke="#1e1e1e" stroke-width="2" fill="none"></path></g><g transform="translate(1370.3131000049777 3672.206490340148) rotate(0 -83.66681671142464 231.58779212056788)"><path d="M-86.4 439.24 C-86.03 446.99, -90.47 458.3, -89.33 464.07 M-86.4 439.24 C-88.33 447.05, -88.73 452.57, -89.33 464.07" stroke="#1e1e1e" stroke-width="2" fill="none"></path></g></g><mask></mask><g stroke-linecap="round"><g transform="translate(1372.3458635315335 3633.4224463198398) rotate(0 -316.0665043422158 -355.8896760544899)"><path d="M-0.04 0.13 C-53.16 -12.9, -212.41 41.56, -317.75 -77.23 C-423.08 -196.02, -629.1 -609.34, -632.03 -712.6 C-634.97 -815.86, -384.67 -699.65, -335.36 -696.81 M-1.51 -0.85 C-54.92 -13.78, -213.71 42.65, -318.91 -75.83 C-424.12 -194.3, -629.53 -608.36, -632.75 -711.72 C-635.96 -815.07, -387.4 -698.78, -338.19 -695.94" stroke="#1e1e1e" stroke-width="2" fill="none"></path></g><g transform="translate(1372.3458635315335 3633.4224463198398) rotate(0 -316.0665043422158 -355.8896760544899)"><path d="M-363.12 -694.08 C-353.39 -695.47, -344.48 -695.33, -338.19 -695.94 M-363.12 -694.08 C-357.13 -693.73, -351.24 -694.72, -338.19 -695.94" stroke="#1e1e1e" stroke-width="2" fill="none"></path></g><g transform="translate(1372.3458635315335 3633.4224463198398) rotate(0 -316.0665043422158 -355.8896760544899)"><path d="M-358.49 -710.54 C-350.4 -705.64, -343.27 -699.2, -338.19 -695.94 M-358.49 -710.54 C-353.42 -706.4, -348.6 -703.58, -338.19 -695.94" stroke="#1e1e1e" stroke-width="2" fill="none"></path></g></g><mask></mask><g stroke-linecap="round"><g transform="translate(1389.8783418490864 2747.3949449630095) rotate(0 18.55481683102647 94.66669718424464)"><path d="M-0.23 -1.19 C5.88 30.49, 31.31 158.23, 37.73 190.09 M-1.81 0.8 C4.1 32.13, 30.46 157.17, 37.11 188.37" stroke="#1e1e1e" stroke-width="2" fill="none"></path></g><g transform="translate(1389.8783418490864 2747.3949449630095) rotate(0 18.55481683102647 94.66669718424464)"><path d="M23.89 167.16 C27.08 176.52, 35.51 185.73, 37.11 188.37 M23.89 167.16 C28.77 174.74, 33.11 182.22, 37.11 188.37" stroke="#1e1e1e" stroke-width="2" fill="none"></path></g><g transform="translate(1389.8783418490864 2747.3949449630095) rotate(0 18.55481683102647 94.66669718424464)"><path d="M40.62 163.62 C37.27 174.33, 39.15 184.93, 37.11 188.37 M40.62 163.62 C39.59 172.46, 38 181.19, 37.11 188.37" stroke="#1e1e1e" stroke-width="2" fill="none"></path></g></g><mask></mask><g transform="translate(2187.155760818083 4215.290429445004) rotate(0 187.8541717529297 17.5)"><text x="0" y="24.528" font-family="Virgil, Segoe UI Emoji" font-size="28px" fill="#1e1e1e" text-anchor="start" style="white-space: pre;" direction="ltr" dominant-baseline="alphabetic">Que voulez-vous chercher ?</text></g><g transform="translate(2187.155760818083 4260.290429445004) rotate(0 64.95833587646484 17.5)"><text x="0" y="24.528" font-family="Virgil, Segoe UI Emoji" font-size="28px" fill="#1e1e1e" text-anchor="start" style="white-space: pre;" direction="ltr" dominant-baseline="alphabetic">1. Couleur</text></g><g transform="translate(2187.155760818083 4305.290429445004) rotate(0 62.96875 17.5)"><text x="0" y="24.528" font-family="Virgil, Segoe UI Emoji" font-size="28px" fill="#1e1e1e" text-anchor="start" style="white-space: pre;" direction="ltr" dominant-baseline="alphabetic">2. Valeur</text></g><g transform="translate(2187.155760818083 4350.290429445004) rotate(0 52.97916793823242 17.5)"><text x="0" y="24.528" font-family="Virgil, Segoe UI Emoji" font-size="28px" fill="#1e1e1e" text-anchor="start" style="white-space: pre;" direction="ltr" dominant-baseline="alphabetic">3. Type</text></g><g stroke-linecap="round" transform="translate(2082.155760818083 4198.290459962582) rotate(0 290 99.99996185302734)"><path d="M32 0 C178.99 -1.79, 324.55 -1.84, 548 0 M32 0 C153.07 -1.57, 274.51 -1.92, 548 0 M548 0 C569.62 0.16, 579.14 10.4, 580 32 M548 0 C568.4 2.26, 581.25 9.83, 580 32 M580 32 C579.16 73.33, 582.78 113.22, 580 168 M580 32 C579.72 78.46, 578.54 124.13, 580 168 M580 168 C579.96 191.28, 567.76 199.27, 548 200 M580 168 C582 189.06, 569.9 199.04, 548 200 M548 200 C346.2 201.09, 145.74 201.84, 32 200 M548 200 C352.72 200.84, 158.12 201.36, 32 200 M32 200 C10.03 200.64, -0.07 189.68, 0 168 M32 200 C9.36 201.06, 0.05 188.34, 0 168 M0 168 C0.98 127.95, 0.69 89.57, 0 32 M0 168 C-0.17 115.02, 1.06 61.22, 0 32 M0 32 C0.53 10.07, 9.36 -1.91, 32 0 M0 32 C1.28 11.94, 8.6 2.23, 32 0" stroke="#1e1e1e" stroke-width="2" fill="none"></path></g><g stroke-linecap="round"><g transform="translate(1666.1557760768721 3722.2904370743977) rotate(0 351.0000228881836 234.99998092651367)"><path d="M1.08 -0.59 C117.78 2.26, 585.65 -61.52, 701.04 16.99 C816.42 95.5, 694.82 394.91, 693.4 470.46 M0.2 1.71 C117.18 4.68, 587.82 -59.78, 703.24 18 C818.66 95.77, 694.51 392.76, 692.71 468.36" stroke="#1e1e1e" stroke-width="2" fill="none"></path></g><g transform="translate(1666.1557760768721 3722.2904370743977) rotate(0 351.0000228881836 234.99998092651367)"><path d="M689.28 443.6 C689.56 451.22, 690.14 462.32, 692.71 468.36 M689.28 443.6 C689.99 451.31, 690.5 460.9, 692.71 468.36" stroke="#1e1e1e" stroke-width="2" fill="none"></path></g><g transform="translate(1666.1557760768721 3722.2904370743977) rotate(0 351.0000228881836 234.99998092651367)"><path d="M706 447.19 C700.02 453.62, 694.35 463.38, 692.71 468.36 M706 447.19 C701.08 453.73, 695.92 462.11, 692.71 468.36" stroke="#1e1e1e" stroke-width="2" fill="none"></path></g></g><mask></mask><g transform="translate(1662.155760818083 4582.79065832684) rotate(0 250.5625 17.5)"><text x="0" y="24.528" font-family="Virgil, Segoe UI Emoji" font-size="28px" fill="#1e1e1e" text-anchor="start" style="white-space: pre;" direction="ltr" dominant-baseline="alphabetic">Couleur disponible dans vos cartes :</text></g><g transform="translate(1662.155760818083 4627.79065832684) rotate(0 25.21875 17.5)"><text x="0" y="24.528" font-family="Virgil, Segoe UI Emoji" font-size="28px" fill="#1e1e1e" text-anchor="start" style="white-space: pre;" direction="ltr" dominant-baseline="alphabetic">Red</text></g><g transform="translate(1662.155760818083 4672.79065832684) rotate(0 60.69791793823242 17.5)"><text x="0" y="24.528" font-family="Virgil, Segoe UI Emoji" font-size="28px" fill="#1e1e1e" text-anchor="start" style="white-space: pre;" direction="ltr" dominant-baseline="alphabetic">Couleur :</text></g><g transform="translate(1758.1558981471846 4856.290948243832) rotate(0 25.21875 17.5)"><text x="0" y="24.528" font-family="Virgil, Segoe UI Emoji" font-size="28px" fill="#e03131" text-anchor="start" style="white-space: pre;" direction="ltr" dominant-baseline="alphabetic">Red</text></g><g stroke-linecap="round" transform="translate(1614.1558065944503 4550.290963502621) rotate(0 294.99996185302734 88.9999771118164)"><path d="M32 0 C171.76 2.2, 310.55 1.22, 558 0 M32 0 C146.09 1.52, 259.87 1.21, 558 0 M558 0 C580.19 -0.73, 588.09 12.59, 590 32 M558 0 C581.59 -1.92, 591.34 12.58, 590 32 M590 32 C588.88 69.89, 590.28 107.95, 590 146 M590 32 C590.76 72.26, 590.52 111.75, 590 146 M590 146 C590.15 168.29, 578.84 178.1, 558 178 M590 146 C589.44 167.87, 579.2 176.21, 558 178 M558 178 C408.02 178.94, 255.98 178.43, 32 178 M558 178 C384.7 178.56, 211.91 178.8, 32 178 M32 178 C10.5 179.12, -0.64 165.49, 0 146 M32 178 C12.16 177.48, 0.11 167.54, 0 146 M0 146 C1.88 121.55, 2.37 92.72, 0 32 M0 146 C0.05 117.37, 0.64 88.31, 0 32 M0 32 C1.6 9.08, 12.17 -0.94, 32 0 M0 32 C-0.1 12.14, 10.29 -0.28, 32 0" stroke="#1e1e1e" stroke-width="2" fill="none"></path></g><g stroke-linecap="round" transform="translate(1670.1558676296065 4820.2908872086755) rotate(0 111.99996948242188 51.000022888183594)"><path d="M25.5 0 C69.31 2.55, 113.12 -0.53, 198.5 0 M25.5 0 C66.32 1.1, 109.37 0.74, 198.5 0 M198.5 0 C216.19 -1.82, 224.55 10.22, 224 25.5 M198.5 0 C213.26 -1.08, 225.19 6.74, 224 25.5 M224 25.5 C222.42 37.82, 223.91 49.51, 224 76.5 M224 25.5 C224.21 43.06, 225.08 62.15, 224 76.5 M224 76.5 C224.3 91.97, 217 101.29, 198.5 102 M224 76.5 C222.8 95.55, 214.65 104.01, 198.5 102 M198.5 102 C130.54 101.43, 59.7 105.13, 25.5 102 M198.5 102 C142.91 103.28, 86.84 104.07, 25.5 102 M25.5 102 C8.69 100.68, 0.59 92.28, 0 76.5 M25.5 102 C9.32 103.93, -0.91 91.66, 0 76.5 M0 76.5 C-0.18 56.67, -0.42 38.62, 0 25.5 M0 76.5 C0.22 62.35, 0.14 49.21, 0 25.5 M0 25.5 C-0.59 6.99, 8.76 -1.47, 25.5 0 M0 25.5 C1.79 6.58, 10.03 2.07, 25.5 0" stroke="#e03131" stroke-width="2" fill="none"></path></g><g stroke-linecap="round"><g transform="translate(2184.1556540065594 4278.290917726254) rotate(0 -167.00000762939453 135)"><path d="M-0.73 -1.14 C-56.51 -0.45, -279.47 -41.01, -334.78 4.1 C-390.08 49.22, -333.19 225.06, -332.55 269.54 M1.09 0.88 C-54.3 1.78, -276.69 -39.26, -332.47 5.7 C-388.26 50.65, -333.39 226.74, -333.6 270.61" stroke="#1e1e1e" stroke-width="2" fill="none"></path></g><g transform="translate(2184.1556540065594 4278.290917726254) rotate(0 -167.00000762939453 135)"><path d="M-345.54 248.65 C-343.96 253.84, -338.4 260.63, -333.6 270.61 M-345.54 248.65 C-343.03 253.65, -339.58 260.45, -333.6 270.61" stroke="#1e1e1e" stroke-width="2" fill="none"></path></g><g transform="translate(2184.1556540065594 4278.290917726254) rotate(0 -167.00000762939453 135)"><path d="M-328.63 246.11 C-331.99 251.94, -331.37 259.48, -333.6 270.61 M-328.63 246.11 C-330.52 251.91, -331.49 259.38, -333.6 270.61" stroke="#1e1e1e" stroke-width="2" fill="none"></path></g></g><mask></mask><g stroke-linecap="round"><g transform="translate(1865.6766375205007 4736.290871949886) rotate(0 -33.08418802051523 41.000022888183594)"><path d="M-0.21 -0.89 C-11.31 12.77, -55.21 67.33, -66.24 80.96 M-1.78 1.26 C-13.07 15.11, -56.31 68.55, -67.23 81.96" stroke="#1e1e1e" stroke-width="2" fill="none"></path></g><g transform="translate(1865.6766375205007 4736.290871949886) rotate(0 -33.08418802051523 41.000022888183594)"><path d="M-59.06 58.33 C-63.43 66.01, -66.38 73.58, -67.23 81.96 M-59.06 58.33 C-60.51 63.02, -62.4 68.22, -67.23 81.96" stroke="#1e1e1e" stroke-width="2" fill="none"></path></g><g transform="translate(1865.6766375205007 4736.290871949886) rotate(0 -33.08418802051523 41.000022888183594)"><path d="M-45.78 69.1 C-54.46 73.2, -61.79 77.2, -67.23 81.96 M-45.78 69.1 C-49.94 71.38, -54.66 74.3, -67.23 81.96" stroke="#1e1e1e" stroke-width="2" fill="none"></path></g></g><mask></mask><g stroke-linecap="round"><g transform="translate(1758.1554658148264 4928.957091025408) rotate(0 -695.9999338785806 -1052.7152310691258)"><path d="M1.14 0.09 C-32.14 18.06, -3.86 167.77, -199.07 107.75 C-394.29 47.73, -971.21 26.77, -1170.13 -360.06 C-1369.05 -746.89, -1489.79 -1941.99, -1392.58 -2213.21 C-1295.38 -2484.43, -721.16 -2024.72, -586.91 -1987.36 M0.29 -0.91 C-32.69 17.26, -1.72 169.42, -196.87 109.21 C-392.02 48.99, -971.32 24.68, -1170.62 -362.2 C-1369.91 -749.07, -1490.24 -1941.29, -1392.64 -2212.04 C-1295.04 -2482.79, -719.46 -2024.2, -585.02 -1986.7" stroke="#1e1e1e" stroke-width="2" fill="none"></path></g><g transform="translate(1758.1554658148264 4928.957091025408) rotate(0 -695.9999338785806 -1052.7152310691258)"><path d="M-609.75 -1990.35 C-600.87 -1990.9, -592.54 -1987.12, -585.02 -1986.7 M-609.75 -1990.35 C-602.02 -1988.73, -593.9 -1988.93, -585.02 -1986.7" stroke="#1e1e1e" stroke-width="2" fill="none"></path></g><g transform="translate(1758.1554658148264 4928.957091025408) rotate(0 -695.9999338785806 -1052.7152310691258)"><path d="M-601.62 -2005.39 C-595.63 -2000.55, -590.16 -1991.46, -585.02 -1986.7 M-601.62 -2005.39 C-596.67 -1998.76, -591.25 -1993.96, -585.02 -1986.7" stroke="#1e1e1e" stroke-width="2" fill="none"></path></g></g><mask></mask><g transform="translate(2441.0014315864896 4557.195626825207) rotate(0 242.375 17.5)"><text x="0" y="24.528" font-family="Virgil, Segoe UI Emoji" font-size="28px" fill="#1e1e1e" text-anchor="start" style="white-space: pre;" direction="ltr" dominant-baseline="alphabetic">Valeur disponible dans vos cartes :</text></g><g transform="translate(2441.0014315864896 4602.195626825207) rotate(0 32.73958206176758 17.5)"><text x="0" y="24.528" font-family="Virgil, Segoe UI Emoji" font-size="28px" fill="#1e1e1e" text-anchor="start" style="white-space: pre;" direction="ltr" dominant-baseline="alphabetic">Zero</text></g><g transform="translate(2441.0014315864896 4692.195626825207) rotate(0 52.51041793823242 17.5)"><text x="0" y="24.528" font-family="Virgil, Segoe UI Emoji" font-size="28px" fill="#1e1e1e" text-anchor="start" style="white-space: pre;" direction="ltr" dominant-baseline="alphabetic">Valeur :</text></g><g mask="url(#mask-04fhQaKHKBLr-ml6H7EgB)" stroke-linecap="round"><g transform="translate(1375.3747895858255 3109.492236629739) rotate(0 -52.66648556830904 -1054.9785242204275)"><path d="M0.35 0.86 C27.78 -20.01, 142.16 207.85, 164.67 -125.49 C187.18 -458.84, 211.75 -1672.75, 135.42 -1999.2 C59.08 -2325.66, -222.05 -2069.95, -293.36 -2084.2 M-0.92 0.27 C26.89 -20.38, 144.49 209.53, 167.03 -124.04 C189.58 -457.6, 211.04 -1674.11, 134.34 -2001.13 C57.65 -2328.15, -221.83 -2072.35, -293.12 -2086.15" stroke="#1e1e1e" stroke-width="2" fill="none"></path></g><g transform="translate(1375.3747895858255 3109.492236629739) rotate(0 -52.66648556830904 -1054.9785242204275)"><path d="M-273.66 -2101.84 C-278.32 -2098.01, -286.07 -2093, -293.12 -2086.15 M-273.66 -2101.84 C-280.01 -2095.36, -287.75 -2090.29, -293.12 -2086.15" stroke="#1e1e1e" stroke-width="2" fill="none"></path></g><g transform="translate(1375.3747895858255 3109.492236629739) rotate(0 -52.66648556830904 -1054.9785242204275)"><path d="M-268.12 -2085.66 C-274.46 -2086.85, -283.94 -2086.87, -293.12 -2086.15 M-268.12 -2085.66 C-276.5 -2085.05, -286.27 -2085.91, -293.12 -2086.15" stroke="#1e1e1e" stroke-width="2" fill="none"></path></g></g><mask id="mask-04fhQaKHKBLr-ml6H7EgB"><rect x="0" y="0" fill="#fff" width="1934.0414765975443" height="5294.825488582864"></rect><rect x="1433.8115699695575" y="1979.9167292740076" fill="#000" width="257.20794677734375" height="70" opacity="1"></rect></mask><g transform="translate(1433.8115699695577 1979.9167292740071) rotate(0 -111.10326595204111 74.59698313530453)"><text x="128.60397338867188" y="24.528" font-family="Virgil, Segoe UI Emoji" font-size="28px" fill="#1e1e1e" text-anchor="middle" style="white-space: pre;" direction="ltr" dominant-baseline="alphabetic">Nombre de cartes </text><text x="128.60397338867188" y="59.528" font-family="Virgil, Segoe UI Emoji" font-size="28px" fill="#1e1e1e" text-anchor="middle" style="white-space: pre;" direction="ltr" dominant-baseline="alphabetic">entré</text></g><g transform="translate(2454.0416291854344 4868.492226457212) rotate(0 32.73958206176758 17.5)"><text x="0" y="24.528" font-family="Virgil, Segoe UI Emoji" font-size="28px" fill="#e03131" text-anchor="start" style="white-space: pre;" direction="ltr" dominant-baseline="alphabetic">Zero</text></g><g stroke-linecap="round" transform="translate(2402.0416088403827 4841.825559790546) rotate(0 86.00001017252589 47.3333740234375)"><path d="M23.67 0 C56.26 0.89, 92.73 0.61, 148.33 0 M23.67 0 C64.02 -1.08, 105.08 -1.86, 148.33 0 M148.33 0 C163.16 -0.65, 171.41 9.04, 172 23.67 M148.33 0 C164.97 -0.61, 171.5 8.02, 172 23.67 M172 23.67 C172.15 34.82, 171.58 46.85, 172 71 M172 23.67 C171.3 34.33, 170.96 45.75, 172 71 M172 71 C171.18 85.23, 163.63 95.83, 148.33 94.67 M172 71 C173.86 86.68, 164.54 92.75, 148.33 94.67 M148.33 94.67 C110.74 95.11, 69.52 91.75, 23.67 94.67 M148.33 94.67 C112.43 94.45, 78.3 94.8, 23.67 94.67 M23.67 94.67 C9.23 94.89, -0.21 84.88, 0 71 M23.67 94.67 C9.81 94.75, -0.04 85.5, 0 71 M0 71 C0.31 60.08, 1.85 49.42, 0 23.67 M0 71 C0.7 57.15, 0.6 43.1, 0 23.67 M0 23.67 C-1.91 8.66, 7.22 -1.99, 23.67 0 M0 23.67 C1.28 5.99, 8.12 1.12, 23.67 0" stroke="#e03131" stroke-width="2" fill="none"></path></g><g stroke-linecap="round" transform="translate(2382.0416088403827 4520.492195939635) rotate(0 306.0000101725259 118.66666158040357)"><path d="M32 0 C190.64 -1.84, 348.77 -2.53, 580 0 M32 0 C178.48 0.16, 325 -0.2, 580 0 M580 0 C601.11 1.85, 613.3 10.68, 612 32 M580 0 C602.58 -0.41, 609.8 11.56, 612 32 M612 32 C608.62 78.4, 611.25 123.42, 612 205.33 M612 32 C612.1 76.55, 612.48 118.88, 612 205.33 M612 205.33 C612.01 228.32, 599.87 237.36, 580 237.33 M612 205.33 C612.5 227.4, 602.39 239.01, 580 237.33 M580 237.33 C461.24 238.33, 341.46 239.06, 32 237.33 M580 237.33 C464.7 236.53, 349 235.85, 32 237.33 M32 237.33 C11.05 238.89, 0.65 225.65, 0 205.33 M32 237.33 C9.41 238.84, -1.94 226.4, 0 205.33 M0 205.33 C-0.26 167.86, 1.48 132.66, 0 32 M0 205.33 C-0.46 160.13, -2.35 115.42, 0 32 M0 32 C0.47 10.37, 11.32 0.07, 32 0 M0 32 C1.71 11.06, 10.45 -1.95, 32 0" stroke="#1e1e1e" stroke-width="2" fill="none"></path></g><g stroke-linecap="round"><g transform="translate(2171.6416454614764 4319.958878373717) rotate(0 93.25725246611069 98.93333307902003)"><path d="M-1.2 0.28 C-16.62 18.66, -140.23 76.13, -93.4 109.21 C-46.57 142.29, 217.55 184, 279.77 198.76 M0.37 -0.61 C-15.14 17.49, -140.89 74.38, -94.44 107.29 C-48 140.21, 216.57 181.63, 279.03 196.88" stroke="#1e1e1e" stroke-width="2" fill="none"></path></g><g transform="translate(2171.6416454614764 4319.958878373717) rotate(0 93.25725246611069 98.93333307902003)"><path d="M254.32 200.67 C260.39 199.76, 266.14 199.28, 279.03 196.88 M254.32 200.67 C262.71 199.15, 271.88 197.8, 279.03 196.88" stroke="#1e1e1e" stroke-width="2" fill="none"></path></g><g transform="translate(2171.6416454614764 4319.958878373717) rotate(0 93.25725246611069 98.93333307902003)"><path d="M257.67 183.9 C262.83 186.74, 267.83 190.03, 279.03 196.88 M257.67 183.9 C264.84 188.65, 272.75 193.58, 279.03 196.88" stroke="#1e1e1e" stroke-width="2" fill="none"></path></g></g><mask></mask><g stroke-linecap="round"><g transform="translate(2471.374952346242 4764.492338354999) rotate(0 0 37.33332316080714)"><path d="M0.91 -0.1 C1.16 12.32, 0.68 62.9, 0.53 75.44 M-0.07 -1.2 C0.16 10.81, -0.03 61.35, -0.14 73.72" stroke="#1e1e1e" stroke-width="2" fill="none"></path></g><g transform="translate(2471.374952346242 4764.492338354999) rotate(0 0 37.33332316080714)"><path d="M-8.56 50.18 C-6.72 56.13, -3.43 60.4, -0.14 73.72 M-8.56 50.18 C-6.29 57.33, -2.91 65.68, -0.14 73.72" stroke="#1e1e1e" stroke-width="2" fill="none"></path></g><g transform="translate(2471.374952346242 4764.492338354999) rotate(0 0 37.33332316080714)"><path d="M8.54 50.27 C6.65 56.33, 6.22 60.58, -0.14 73.72 M8.54 50.27 C5.06 57.31, 2.69 65.63, -0.14 73.72" stroke="#1e1e1e" stroke-width="2" fill="none"></path></g></g><mask></mask><g stroke-linecap="round"><g transform="translate(2466.0415986678568 4940.492297664896) rotate(0 -1136.999989827474 -1093.0000737508124)"><path d="M0.49 1.13 C-303.77 13.65, -1445.81 450.98, -1824.91 74.1 C-2204.01 -302.79, -2375.61 -1915.04, -2274.1 -2260.19 C-2172.59 -2605.34, -1392.03 -2040.5, -1215.85 -1996.8 M-0.71 0.68 C-304.65 12.98, -1443.64 449.25, -1822.68 72.55 C-2201.71 -304.15, -2376.11 -1914.25, -2274.92 -2259.5 C-2173.72 -2604.75, -1392.09 -2042.56, -1215.5 -1998.95" stroke="#1e1e1e" stroke-width="2" fill="none"></path></g><g transform="translate(2466.0415986678568 4940.492297664896) rotate(0 -1136.999989827474 -1093.0000737508124)"><path d="M-1240.35 -2001.59 C-1229.69 -2002.28, -1220.94 -1999.98, -1215.5 -1998.95 M-1240.35 -2001.59 C-1236.15 -2001.58, -1231.12 -2000.61, -1215.5 -1998.95" stroke="#1e1e1e" stroke-width="2" fill="none"></path></g><g transform="translate(2466.0415986678568 4940.492297664896) rotate(0 -1136.999989827474 -1093.0000737508124)"><path d="M-1232.84 -2016.95 C-1224.96 -2012.16, -1218.88 -2004.43, -1215.5 -1998.95 M-1232.84 -2016.95 C-1230.11 -2013.8, -1226.6 -2009.75, -1215.5 -1998.95" stroke="#1e1e1e" stroke-width="2" fill="none"></path></g></g><mask></mask><g transform="translate(3151.2227499216933 4558.378531766692) rotate(0 99.07291412353516 17.5)"><text x="0" y="24.528" font-family="Virgil, Segoe UI Emoji" font-size="28px" fill="#1e1e1e" text-anchor="start" style="white-space: pre;" direction="ltr" dominant-baseline="alphabetic">Uno ou Skyjo :</text></g><g transform="translate(3153.622774335756 4678.378348661223) rotate(0 24.39583396911621 17.5)"><text x="0" y="24.528" font-family="Virgil, Segoe UI Emoji" font-size="28px" fill="#e03131" text-anchor="start" style="white-space: pre;" direction="ltr" dominant-baseline="alphabetic">Uno</text></g><g stroke-linecap="round" transform="translate(3118.422823163881 4655.978385282317) rotate(0 62.39996337890625 40)"><path d="M20 0 C44.3 -0.12, 66.44 -1.1, 104.8 0 M20 0 C43.46 0.17, 65.46 -0.43, 104.8 0 M104.8 0 C118.32 0.26, 124.81 5.78, 124.8 20 M104.8 0 C117.84 0.65, 125.87 7.82, 124.8 20 M124.8 20 C126.41 32.27, 126.52 42.55, 124.8 60 M124.8 20 C125.39 33.08, 124.92 46.93, 124.8 60 M124.8 60 C124.28 74.06, 116.46 78.59, 104.8 80 M124.8 60 C122.64 71.59, 116.13 79.03, 104.8 80 M104.8 80 C77.99 78.16, 51.27 79.52, 20 80 M104.8 80 C81.3 80.48, 59.21 79.21, 20 80 M20 80 C8.14 81.07, -0.46 74.3, 0 60 M20 80 C5.25 79.05, 2.03 73.97, 0 60 M0 60 C-1.74 49.45, 0.12 37.16, 0 20 M0 60 C-1.03 46.7, -0.79 35.13, 0 20 M0 20 C1.18 6.14, 6.78 -1.04, 20 0 M0 20 C0.11 7.23, 4.63 0.8, 20 0" stroke="#e03131" stroke-width="2" fill="none"></path></g><g stroke-linecap="round" transform="translate(3113.622774335756 4539.178397489348) rotate(0 132 36.79998779296875)"><path d="M18.4 0 C68.64 2.13, 118.35 0.31, 245.6 0 M18.4 0 C64.81 1.9, 112.34 1.14, 245.6 0 M245.6 0 C258.61 -1.29, 265.58 6.2, 264 18.4 M245.6 0 C257.18 -0.09, 264.56 4.75, 264 18.4 M264 18.4 C265.55 31.54, 263.61 43.51, 264 55.2 M264 18.4 C264.12 26.88, 264.12 35.26, 264 55.2 M264 55.2 C262.37 67.76, 258.1 72.44, 245.6 73.6 M264 55.2 C264.52 67.84, 258.68 71.39, 245.6 73.6 M245.6 73.6 C187.44 74.96, 127.36 74.52, 18.4 73.6 M245.6 73.6 C176.64 71.82, 107.89 71.98, 18.4 73.6 M18.4 73.6 C5.31 74.12, 1.72 68.96, 0 55.2 M18.4 73.6 C6 72.86, -1.79 66.96, 0 55.2 M0 55.2 C-0.1 45.69, 1.67 32.47, 0 18.4 M0 55.2 C-0.99 46.29, -0.11 37.74, 0 18.4 M0 18.4 C1.55 5.29, 6.13 0.71, 18.4 0 M0 18.4 C2.03 7.36, 6.6 -1.02, 18.4 0" stroke="#1e1e1e" stroke-width="2" fill="none"></path></g><g stroke-linecap="round"><g transform="translate(2300.822786542787 4371.178428006926) rotate(0 468.8000183105469 82.39997863769531)"><path d="M0.21 -0.78 C156.78 1.37, 783.37 -15.37, 938.53 12.3 C1093.69 39.96, 932.24 139.7, 931.2 165.23 M-1.13 1.42 C155.42 3.78, 782.81 -13.38, 938.07 13.57 C1093.33 40.52, 931.87 138.17, 930.43 163.11" stroke="#1e1e1e" stroke-width="2" fill="none"></path></g><g transform="translate(2300.822786542787 4371.178428006926) rotate(0 468.8000183105469 82.39997863769531)"><path d="M938.82 139.56 C935.47 146.54, 934 150.39, 930.43 163.11 M938.82 139.56 C936.42 147.07, 932.46 155.8, 930.43 163.11" stroke="#1e1e1e" stroke-width="2" fill="none"></path></g><g transform="translate(2300.822786542787 4371.178428006926) rotate(0 468.8000183105469 82.39997863769531)"><path d="M952 150.47 C945.67 154.96, 941.18 156.31, 930.43 163.11 M952 150.47 C945.07 154.38, 936.69 159.45, 930.43 163.11" stroke="#1e1e1e" stroke-width="2" fill="none"></path></g></g><mask></mask><g stroke-linecap="round"><g transform="translate(3198.422823163881 4615.978385282317) rotate(0 -7.20001220703125 20)"><path d="M-0.08 -0.28 C-2.52 6.34, -12.02 33.14, -14.43 39.88 M-0.79 0.76 C-3.32 7.45, -12.52 34.11, -14.88 40.52" stroke="#1e1e1e" stroke-width="2" fill="none"></path></g><g transform="translate(3198.422823163881 4615.978385282317) rotate(0 -7.20001220703125 20)"><path d="M-15.04 19.27 C-15.48 26.36, -15.12 33.31, -14.88 40.52 M-15.04 19.27 C-14.84 26.53, -14.61 33.15, -14.88 40.52" stroke="#1e1e1e" stroke-width="2" fill="none"></path></g><g transform="translate(3198.422823163881 4615.978385282317) rotate(0 -7.20001220703125 20)"><path d="M-1.34 24.14 C-6.39 29.58, -10.64 34.89, -14.88 40.52 M-1.34 24.14 C-5.71 29.77, -10.05 34.76, -14.88 40.52" stroke="#1e1e1e" stroke-width="2" fill="none"></path></g></g><mask></mask><g stroke-linecap="round"><g transform="translate(3159.756237877423 4738.911846789479) rotate(0 -1562.1497141520176 -814.4332377115886)"><path d="M0 0.69 C-48.57 56.48, 122.14 253.61, -290.98 335.36 C-704.09 417.12, -2006.29 900.34, -2478.69 491.23 C-2951.1 82.12, -3237.7 -1737.47, -3125.42 -2119.31 C-3013.14 -2501.14, -2025.18 -1853.1, -1805.02 -1799.79 M-1.46 0 C-50.25 55.86, 120.37 254.3, -292.11 336.36 C-704.59 418.42, -2004.08 901.97, -2476.36 492.37 C-2948.63 82.76, -3237.43 -1739.25, -3125.76 -2121.27 C-3014.1 -2503.29, -2026.27 -1853.19, -1806.34 -1799.76" stroke="#1e1e1e" stroke-width="2" fill="none"></path></g><g transform="translate(3159.756237877423 4738.911846789479) rotate(0 -1562.1497141520176 -814.4332377115886)"><path d="M-1831.26 -1801.76 C-1821.73 -1801.66, -1816.22 -1802.18, -1806.34 -1799.76 M-1831.26 -1801.76 C-1824.28 -1802.02, -1817.02 -1801.19, -1806.34 -1799.76" stroke="#1e1e1e" stroke-width="2" fill="none"></path></g><g transform="translate(3159.756237877423 4738.911846789479) rotate(0 -1562.1497141520176 -814.4332377115886)"><path d="M-1824.14 -1817.31 C-1816.92 -1811.98, -1813.81 -1807.27, -1806.34 -1799.76 M-1824.14 -1817.31 C-1819.24 -1813.28, -1813.92 -1808.22, -1806.34 -1799.76" stroke="#1e1e1e" stroke-width="2" fill="none"></path></g></g><mask></mask></svg>